<?xml version="1.0" encoding="utf-8"?>
<!-- Generator: Adobe Illustrator 24.0.2, SVG Export Plug-In . SVG Version: 6.00 Build 0)  -->
<svg version="1.1" id="Layer_1" xmlns="http://www.w3.org/2000/svg" xmlns:xlink="http://www.w3.org/1999/xlink" x="0px" y="0px"
	 viewBox="0 0 1400.26 1057.03" style="enable-background:new 0 0 1400.26 1057.03;" xml:space="preserve">
<style type="text/css">
	.st0{fill:none;stroke:#000000;stroke-width:0.2835;stroke-miterlimit:10;}
	.st1{fill:none;stroke:#ED1C24;stroke-width:0.2835;stroke-miterlimit:10;}
	.st2{font-family:'Eng_FuturaLine';}
	.st3{font-size:8px;}
	.st4{font-size:10px;}
	.st5{font-size:7.9937px;}
	.st6{font-family:'MyriadPro-Regular';}
	.st7{font-family:'AbrilFatface-Regular';}
</style>
<path class="st0" d="M489.47,903.71c0,3.13,2.54,5.67,5.67,5.67"/>
<line class="st0" x1="495.13" y1="909.38" x2="682.22" y2="909.38"/>
<path class="st0" d="M682.22,909.38c3.13,0,5.67-2.54,5.67-5.67"/>
<line class="st0" x1="687.89" y1="903.71" x2="687.89" y2="892.37"/>
<line class="st0" x1="687.89" y1="892.37" x2="794.19" y2="892.37"/>
<line class="st0" x1="794.19" y1="892.37" x2="794.19" y2="903.71"/>
<path class="st0" d="M794.19,903.71c0,3.13,2.54,5.67,5.67,5.67"/>
<line class="st0" x1="799.86" y1="909.38" x2="986.95" y2="909.38"/>
<path class="st0" d="M986.95,909.38c3.13,0,5.67-2.54,5.67-5.67"/>
<line class="st0" x1="992.62" y1="903.71" x2="992.62" y2="892.37"/>
<line class="st0" x1="992.62" y1="892.37" x2="1169.78" y2="892.37"/>
<polyline class="st0" points="1169.78,793.16 1166.84,803.08 1164.47,813 1162.73,822.92 1161.64,832.84 1161.28,842.76 
	1161.64,852.68 1162.73,862.61 1164.47,872.53 1166.84,882.45 1169.78,892.37 "/>
<line class="st0" x1="1169.78" y1="793.16" x2="992.62" y2="793.16"/>
<line class="st0" x1="992.62" y1="793.16" x2="992.62" y2="781.82"/>
<path class="st0" d="M992.62,781.82c0-3.13-2.54-5.67-5.67-5.67"/>
<line class="st0" x1="986.95" y1="776.15" x2="799.86" y2="776.15"/>
<path class="st0" d="M799.86,776.15c-3.13,0-5.67,2.54-5.67,5.67"/>
<line class="st0" x1="794.19" y1="781.82" x2="794.19" y2="793.16"/>
<line class="st0" x1="794.19" y1="793.16" x2="687.89" y2="793.16"/>
<line class="st0" x1="687.89" y1="793.16" x2="687.89" y2="781.82"/>
<path class="st0" d="M687.89,781.82c0-3.13-2.54-5.67-5.67-5.67"/>
<line class="st0" x1="682.22" y1="776.15" x2="495.13" y2="776.15"/>
<path class="st0" d="M495.13,776.15c-3.13,0-5.67,2.54-5.67,5.67"/>
<line class="st0" x1="489.47" y1="781.82" x2="489.47" y2="793.16"/>
<line class="st0" x1="489.47" y1="793.16" x2="383.17" y2="793.16"/>
<line class="st0" x1="383.17" y1="793.16" x2="383.17" y2="781.82"/>
<path class="st0" d="M383.17,781.82c0-3.13-2.54-5.67-5.67-5.67"/>
<line class="st0" x1="377.5" y1="776.15" x2="190.41" y2="776.15"/>
<path class="st0" d="M190.41,776.15c-3.13,0-5.67,2.54-5.67,5.67"/>
<line class="st0" x1="184.74" y1="781.82" x2="184.74" y2="793.16"/>
<line class="st0" x1="184.74" y1="793.16" x2="7.58" y2="793.16"/>
<polyline class="st0" points="7.58,793.16 10.52,803.08 12.88,813 14.63,822.92 15.71,832.84 16.08,842.76 15.71,852.68 
	14.63,862.61 12.88,872.53 10.52,882.45 7.58,892.37 "/>
<line class="st0" x1="7.58" y1="892.37" x2="184.74" y2="892.37"/>
<line class="st0" x1="184.74" y1="892.37" x2="184.74" y2="903.71"/>
<path class="st0" d="M184.74,903.71c0,3.13,2.54,5.67,5.67,5.67"/>
<line class="st0" x1="190.41" y1="909.38" x2="377.5" y2="909.38"/>
<path class="st0" d="M377.5,909.38c3.13,0,5.67-2.54,5.67-5.67"/>
<line class="st0" x1="383.17" y1="903.71" x2="383.17" y2="892.37"/>
<line class="st0" x1="383.17" y1="892.37" x2="489.47" y2="892.37"/>
<line class="st0" x1="489.47" y1="892.37" x2="489.47" y2="903.71"/>
<line class="st0" x1="1346.59" y1="289.67" x2="1372.79" y2="289.67"/>
<line class="st0" x1="1372.79" y1="289.67" x2="1372.79" y2="270.09"/>
<line class="st0" x1="1372.79" y1="270.09" x2="1384.13" y2="270.09"/>
<path class="st0" d="M1384.13,270.09c3.13,0,5.67-2.54,5.67-5.67"/>
<line class="st0" x1="1389.8" y1="264.42" x2="1389.8" y2="219.06"/>
<path class="st0" d="M1389.8,219.06c0-3.13-2.54-5.67-5.67-5.67"/>
<line class="st0" x1="1384.13" y1="213.39" x2="1372.79" y2="213.39"/>
<line class="st0" x1="1372.79" y1="213.39" x2="1372.79" y2="151.03"/>
<line class="st0" x1="1372.79" y1="151.03" x2="1384.13" y2="151.03"/>
<path class="st0" d="M1384.13,151.03c3.13,0,5.67-2.54,5.67-5.67"/>
<line class="st0" x1="1389.8" y1="145.36" x2="1389.8" y2="100.01"/>
<path class="st0" d="M1389.8,100.01c0-3.13-2.54-5.67-5.67-5.67"/>
<line class="st0" x1="1384.13" y1="94.34" x2="1372.79" y2="94.34"/>
<line class="st0" x1="1372.79" y1="94.34" x2="1372.79" y2="31.98"/>
<polyline class="st0" points="1273.58,31.98 1283.5,34.92 1293.42,37.28 1303.34,39.03 1313.26,40.11 1323.18,40.48 1333.1,40.11 
	1343.03,39.03 1352.95,37.28 1362.87,34.92 1372.79,31.98 "/>
<line class="st0" x1="1273.58" y1="31.98" x2="1273.58" y2="94.34"/>
<line class="st0" x1="1273.58" y1="94.34" x2="1262.24" y2="94.34"/>
<path class="st0" d="M1262.24,94.34c-3.13,0-5.67,2.54-5.67,5.67"/>
<line class="st0" x1="1256.57" y1="100.01" x2="1256.57" y2="145.36"/>
<path class="st0" d="M1256.57,145.36c0,3.13,2.54,5.67,5.67,5.67"/>
<line class="st0" x1="1262.24" y1="151.03" x2="1273.58" y2="151.03"/>
<line class="st0" x1="1273.58" y1="151.03" x2="1273.58" y2="213.39"/>
<line class="st0" x1="1273.58" y1="213.39" x2="1262.24" y2="213.39"/>
<path class="st0" d="M1262.24,213.39c-3.13,0-5.67,2.54-5.67,5.67"/>
<line class="st0" x1="1256.57" y1="219.06" x2="1256.57" y2="264.42"/>
<path class="st0" d="M1256.57,264.42c0,3.13,2.54,5.67,5.67,5.67"/>
<line class="st0" x1="1262.24" y1="270.09" x2="1273.58" y2="270.09"/>
<line class="st0" x1="1273.58" y1="270.09" x2="1273.58" y2="332.45"/>
<polyline class="st0" points="1273.58,332.45 1278.54,330.91 1283.5,329.51 1288.46,328.25 1293.42,327.14 1298.38,326.19 
	1303.34,325.39 1308.3,324.77 1313.26,324.31 1318.22,324.04 1323.18,323.94 1328.14,324.04 1333.1,324.31 1340.92,325.11 "/>
<line class="st0" x1="1340.92" y1="325.11" x2="1340.92" y2="295.34"/>
<path class="st0" d="M1346.59,289.67c-3.13,0-5.67,2.54-5.67,5.67"/>
<path class="st0" d="M682.22,1047.61c3.13,0,5.67-2.54,5.67-5.67"/>
<line class="st0" x1="687.89" y1="1041.94" x2="687.89" y2="1030.6"/>
<line class="st0" x1="687.89" y1="1030.6" x2="794.19" y2="1030.6"/>
<line class="st0" x1="794.19" y1="1030.6" x2="794.19" y2="1041.94"/>
<path class="st0" d="M794.19,1041.94c0,3.13,2.54,5.67,5.67,5.67"/>
<line class="st0" x1="799.86" y1="1047.61" x2="986.94" y2="1047.61"/>
<path class="st0" d="M986.94,1047.61c3.13,0,5.67-2.54,5.67-5.67"/>
<line class="st0" x1="992.61" y1="1041.94" x2="992.61" y2="1030.6"/>
<line class="st0" x1="992.61" y1="1030.6" x2="1169.78" y2="1030.6"/>
<polyline class="st0" points="1169.78,1030.6 1166.84,1020.68 1164.47,1010.76 1162.73,1000.84 1161.64,990.91 1161.28,980.99 
	1161.64,971.07 1162.73,961.15 1164.47,951.23 1166.84,941.31 1169.78,931.39 "/>
<line class="st0" x1="1169.78" y1="931.39" x2="992.61" y2="931.39"/>
<line class="st0" x1="992.61" y1="931.39" x2="992.61" y2="920.05"/>
<path class="st0" d="M992.61,920.05c0-3.13-2.54-5.67-5.67-5.67"/>
<line class="st0" x1="986.94" y1="914.38" x2="799.86" y2="914.38"/>
<path class="st0" d="M799.86,914.38c-3.13,0-5.67,2.54-5.67,5.67"/>
<line class="st0" x1="794.19" y1="920.05" x2="794.19" y2="931.39"/>
<line class="st0" x1="794.19" y1="931.39" x2="687.89" y2="931.39"/>
<line class="st0" x1="687.89" y1="931.39" x2="687.89" y2="920.05"/>
<path class="st0" d="M687.89,920.05c0-3.13-2.54-5.67-5.67-5.67"/>
<line class="st0" x1="682.22" y1="914.38" x2="495.13" y2="914.38"/>
<path class="st0" d="M495.13,914.38c-3.13,0-5.67,2.54-5.67,5.67"/>
<line class="st0" x1="489.46" y1="920.05" x2="489.46" y2="931.39"/>
<line class="st0" x1="489.46" y1="931.39" x2="383.17" y2="931.39"/>
<line class="st0" x1="383.17" y1="931.39" x2="383.17" y2="920.05"/>
<path class="st0" d="M383.17,920.05c0-3.13-2.54-5.67-5.67-5.67"/>
<line class="st0" x1="377.5" y1="914.38" x2="190.41" y2="914.38"/>
<path class="st0" d="M190.41,914.38c-3.13,0-5.67,2.54-5.67,5.67"/>
<line class="st0" x1="184.74" y1="920.05" x2="184.74" y2="931.39"/>
<line class="st0" x1="184.74" y1="931.39" x2="7.57" y2="931.39"/>
<polyline class="st0" points="7.57,931.39 10.52,941.31 12.88,951.23 14.63,961.15 15.71,971.07 16.08,980.99 15.71,990.91 
	14.63,1000.84 12.88,1010.76 10.52,1020.68 7.57,1030.6 "/>
<line class="st0" x1="7.57" y1="1030.6" x2="184.74" y2="1030.6"/>
<line class="st0" x1="184.74" y1="1030.6" x2="184.74" y2="1041.94"/>
<path class="st0" d="M184.74,1041.94c0,3.13,2.54,5.67,5.67,5.67"/>
<line class="st0" x1="190.41" y1="1047.61" x2="377.5" y2="1047.61"/>
<path class="st0" d="M377.5,1047.61c3.13,0,5.67-2.54,5.67-5.67"/>
<line class="st0" x1="383.17" y1="1041.94" x2="383.17" y2="1030.6"/>
<line class="st0" x1="383.17" y1="1030.6" x2="489.46" y2="1030.6"/>
<line class="st0" x1="489.46" y1="1030.6" x2="489.46" y2="1041.94"/>
<path class="st0" d="M489.46,1041.94c0,3.13,2.54,5.67,5.67,5.67"/>
<line class="st0" x1="495.13" y1="1047.61" x2="682.22" y2="1047.61"/>
<path class="st0" d="M1346.23,817.56c0,1.57-1.27,2.83-2.84,2.83h-18.74c-1.32,0-2.47,0.92-2.76,2.21
	c-0.85,3.72-3.75,6.62-7.47,7.47c-5.34,1.22-10.66-2.13-11.88-7.47c-0.29-1.29-1.44-2.21-2.76-2.21h-18.74
	c-1.57,0-2.84-1.27-2.84-2.83v-63.54c0-1.32-0.91-2.47-2.2-2.76c-3.72-0.85-6.62-3.75-7.47-7.47c-1.22-5.34,2.12-10.66,7.47-11.88
	c1.29-0.3,2.2-1.44,2.2-2.76v-16.47c0-1.57,1.27-2.84,2.84-2.84h62.36c1.57,0,2.84,1.27,2.84,2.84V817.56z"/>
<path class="st0" d="M1278.19,737.19c-2.43,0-4.39,1.97-4.39,4.39c0,2.43,1.97,4.39,4.39,4.39c2.43,0,4.39-1.97,4.39-4.39
	C1282.59,739.16,1280.62,737.19,1278.19,737.19L1278.19,737.19z"/>
<path class="st0" d="M1312.21,816c-2.43,0-4.39,1.97-4.39,4.39c0,2.43,1.97,4.39,4.39,4.39c2.43,0,4.39-1.97,4.39-4.39
	C1316.6,817.97,1314.64,816,1312.21,816L1312.21,816z"/>
<path class="st0" d="M633.34,580.75c0-2.43-1.97-4.39-4.39-4.39c-2.43,0-4.39,1.97-4.39,4.39c0,2.43,1.97,4.39,4.39,4.39
	C631.37,585.15,633.34,583.18,633.34,580.75L633.34,580.75z"/>
<path class="st0" d="M64.45,674.27c0-2.43-1.97-4.39-4.39-4.39c-2.43,0-4.39,1.97-4.39,4.39c0,2.43,1.97,4.39,4.39,4.39
	C62.48,678.66,64.45,676.7,64.45,674.27L64.45,674.27z"/>
<path class="st0" d="M143.25,708.29c0-2.43-1.97-4.39-4.39-4.39c-2.43,0-4.39,1.97-4.39,4.39c0,2.43,1.97,4.39,4.39,4.39
	C141.29,712.68,143.25,710.71,143.25,708.29L143.25,708.29z"/>
<rect x="225.01" y="401.87" class="st0" width="198.43" height="11.37"/>
<rect x="834.46" y="748.27" class="st0" width="198.43" height="11.37"/>
<rect x="1227.32" y="611.94" class="st0" width="11.37" height="56.69"/>
<rect x="19.2" y="492.88" class="st0" width="11.36" height="56.69"/>
<rect x="19.2" y="611.94" class="st0" width="11.36" height="56.69"/>
<path class="st0" d="M28.28,754.94c0-2.43-1.97-4.39-4.39-4.39c-2.43,0-4.39,1.97-4.39,4.39c0,2.43,1.97,4.39,4.39,4.39
	C26.31,759.34,28.28,757.37,28.28,754.94L28.28,754.94z"/>
<path class="st0" d="M28.28,406.57c0-2.43-1.97-4.39-4.39-4.39c-2.43,0-4.39,1.97-4.39,4.39c0,2.43,1.97,4.39,4.39,4.39
	C26.31,410.96,28.28,408.99,28.28,406.57L28.28,406.57z"/>
<path class="st0" d="M1238.39,754.94c0-2.43-1.97-4.39-4.39-4.39c-2.43,0-4.39,1.97-4.39,4.39c0,2.43,1.97,4.39,4.39,4.39
	C1236.42,759.34,1238.39,757.37,1238.39,754.94L1238.39,754.94z"/>
<rect x="529.73" y="748.14" class="st0" width="198.43" height="11.37"/>
<path class="st0" d="M1238.39,406.57c0-2.43-1.97-4.39-4.39-4.39c-2.43,0-4.39,1.97-4.39,4.39c0,2.43,1.97,4.39,4.39,4.39
	C1236.42,410.96,1238.39,408.99,1238.39,406.57L1238.39,406.57z"/>
<rect x="1227.32" y="492.88" class="st0" width="11.37" height="56.69"/>
<rect x="529.73" y="402" class="st0" width="198.43" height="11.37"/>
<rect x="834.46" y="401.87" class="st0" width="198.43" height="11.37"/>
<rect x="225.01" y="748.27" class="st0" width="198.43" height="11.37"/>
<path class="st0" d="M1249.14,759.34c0,5.93-4.81,10.74-10.74,10.74H19.49c-5.93,0-10.74-4.81-10.74-10.74V402.17
	c0-5.93,4.81-10.74,10.74-10.74h1218.9c5.93,0,10.74,4.81,10.74,10.74V759.34z"/>
<line class="st1" x1="537.31" y1="87.96" x2="554.5" y2="78.04"/>
<line class="st1" x1="517.95" y1="82.77" x2="508.03" y2="65.59"/>
<line class="st1" x1="517.95" y1="107.32" x2="508.03" y2="124.5"/>
<line class="st1" x1="512.77" y1="102.13" x2="495.58" y2="112.05"/>
<line class="st1" x1="537.31" y1="102.13" x2="554.5" y2="112.05"/>
<line class="st1" x1="532.13" y1="82.77" x2="542.05" y2="65.59"/>
<line class="st1" x1="539.21" y1="95.05" x2="559.05" y2="95.05"/>
<line class="st1" x1="532.13" y1="107.32" x2="542.05" y2="124.5"/>
<line class="st1" x1="512.77" y1="87.96" x2="495.58" y2="78.04"/>
<line class="st1" x1="525.04" y1="80.87" x2="525.04" y2="61.03"/>
<line class="st1" x1="510.87" y1="95.05" x2="491.02" y2="95.05"/>
<line class="st1" x1="679.05" y1="137.85" x2="696.23" y2="127.92"/>
<line class="st1" x1="659.69" y1="132.66" x2="649.76" y2="115.47"/>
<line class="st1" x1="659.69" y1="157.21" x2="649.76" y2="174.39"/>
<line class="st1" x1="654.5" y1="152.02" x2="637.31" y2="161.94"/>
<line class="st1" x1="679.05" y1="152.02" x2="696.23" y2="161.94"/>
<line class="st1" x1="673.86" y1="132.66" x2="683.78" y2="115.47"/>
<line class="st1" x1="680.95" y1="144.93" x2="700.79" y2="144.93"/>
<line class="st1" x1="673.86" y1="157.21" x2="683.78" y2="174.39"/>
<line class="st1" x1="654.5" y1="137.85" x2="637.31" y2="127.92"/>
<line class="st1" x1="666.77" y1="130.76" x2="666.77" y2="110.92"/>
<line class="st1" x1="652.6" y1="144.93" x2="632.76" y2="144.93"/>
<line class="st1" x1="886.85" y1="88.24" x2="904.04" y2="78.32"/>
<line class="st1" x1="867.49" y1="83.05" x2="857.57" y2="65.87"/>
<line class="st1" x1="867.49" y1="107.6" x2="857.57" y2="124.78"/>
<line class="st1" x1="862.31" y1="102.41" x2="845.12" y2="112.33"/>
<line class="st1" x1="886.85" y1="102.41" x2="904.04" y2="112.33"/>
<line class="st1" x1="881.67" y1="83.05" x2="891.59" y2="65.87"/>
<line class="st1" x1="888.75" y1="95.33" x2="908.59" y2="95.33"/>
<line class="st1" x1="881.67" y1="107.6" x2="891.59" y2="124.78"/>
<line class="st1" x1="862.31" y1="88.24" x2="845.12" y2="78.32"/>
<line class="st1" x1="874.58" y1="81.15" x2="874.58" y2="61.31"/>
<line class="st1" x1="860.41" y1="95.33" x2="840.56" y2="95.33"/>
<line class="st1" x1="886.85" y1="187.17" x2="904.04" y2="177.25"/>
<line class="st1" x1="867.49" y1="181.99" x2="857.57" y2="164.8"/>
<line class="st1" x1="867.49" y1="206.53" x2="857.57" y2="223.72"/>
<line class="st1" x1="862.31" y1="201.35" x2="845.12" y2="211.27"/>
<line class="st1" x1="881.67" y1="181.99" x2="891.59" y2="164.8"/>
<line class="st1" x1="888.75" y1="194.26" x2="908.59" y2="194.26"/>
<line class="st1" x1="881.67" y1="206.53" x2="891.59" y2="223.72"/>
<line class="st1" x1="862.31" y1="187.17" x2="845.12" y2="177.25"/>
<line class="st1" x1="874.58" y1="180.09" x2="874.58" y2="160.24"/>
<line class="st1" x1="860.41" y1="194.26" x2="840.56" y2="194.26"/>
<line class="st1" x1="986.07" y1="88.24" x2="1003.25" y2="78.32"/>
<line class="st1" x1="966.71" y1="83.05" x2="956.78" y2="65.87"/>
<line class="st1" x1="966.71" y1="107.6" x2="956.78" y2="124.78"/>
<line class="st1" x1="961.52" y1="102.41" x2="944.33" y2="112.33"/>
<line class="st1" x1="986.07" y1="102.41" x2="1003.25" y2="112.33"/>
<line class="st1" x1="980.88" y1="83.05" x2="990.8" y2="65.87"/>
<line class="st1" x1="987.97" y1="95.33" x2="1007.81" y2="95.33"/>
<line class="st1" x1="980.88" y1="107.6" x2="990.8" y2="124.78"/>
<line class="st1" x1="961.52" y1="88.24" x2="944.33" y2="78.32"/>
<line class="st1" x1="973.79" y1="81.15" x2="973.79" y2="61.31"/>
<line class="st1" x1="959.62" y1="95.33" x2="939.78" y2="95.33"/>
<line class="st1" x1="1085.28" y1="88.24" x2="1102.46" y2="78.32"/>
<line class="st1" x1="1065.92" y1="83.05" x2="1056" y2="65.87"/>
<line class="st1" x1="1065.92" y1="107.6" x2="1056" y2="124.78"/>
<line class="st1" x1="1060.73" y1="102.41" x2="1043.55" y2="112.33"/>
<line class="st1" x1="1085.28" y1="102.41" x2="1102.46" y2="112.33"/>
<line class="st1" x1="1080.09" y1="83.05" x2="1090.01" y2="65.87"/>
<line class="st1" x1="1087.18" y1="95.33" x2="1107.02" y2="95.33"/>
<line class="st1" x1="1080.09" y1="107.6" x2="1090.01" y2="124.78"/>
<line class="st1" x1="1060.73" y1="88.24" x2="1043.55" y2="78.32"/>
<line class="st1" x1="1073" y1="81.15" x2="1073" y2="61.31"/>
<line class="st1" x1="1058.83" y1="95.33" x2="1038.99" y2="95.33"/>
<line class="st1" x1="1085.28" y1="187.17" x2="1102.46" y2="177.25"/>
<line class="st1" x1="1065.92" y1="181.99" x2="1056" y2="164.8"/>
<line class="st1" x1="1065.92" y1="206.53" x2="1056" y2="223.72"/>
<line class="st1" x1="1060.73" y1="201.35" x2="1043.55" y2="211.27"/>
<line class="st1" x1="1085.28" y1="201.35" x2="1102.46" y2="211.27"/>
<line class="st1" x1="1080.09" y1="181.99" x2="1090.01" y2="164.8"/>
<line class="st1" x1="1087.18" y1="194.26" x2="1107.02" y2="194.26"/>
<line class="st1" x1="1080.09" y1="206.53" x2="1090.01" y2="223.72"/>
<line class="st1" x1="1060.73" y1="187.17" x2="1043.55" y2="177.25"/>
<line class="st1" x1="1073" y1="180.09" x2="1073" y2="160.24"/>
<line class="st1" x1="1058.83" y1="194.26" x2="1038.99" y2="194.26"/>
<line class="st1" x1="679.05" y1="236.06" x2="696.23" y2="226.14"/>
<line class="st1" x1="659.69" y1="230.87" x2="649.76" y2="213.69"/>
<line class="st1" x1="659.69" y1="255.42" x2="649.76" y2="272.61"/>
<line class="st1" x1="654.5" y1="250.23" x2="637.31" y2="260.16"/>
<line class="st1" x1="679.05" y1="250.23" x2="696.23" y2="260.16"/>
<line class="st1" x1="673.86" y1="230.87" x2="683.78" y2="213.69"/>
<line class="st1" x1="680.95" y1="243.15" x2="700.79" y2="243.15"/>
<line class="st1" x1="673.86" y1="255.42" x2="683.78" y2="272.61"/>
<line class="st1" x1="654.5" y1="236.06" x2="637.31" y2="226.14"/>
<line class="st1" x1="666.77" y1="228.97" x2="666.77" y2="209.13"/>
<line class="st1" x1="652.6" y1="243.15" x2="632.76" y2="243.15"/>
<line class="st1" x1="537.31" y1="187.17" x2="554.5" y2="177.25"/>
<line class="st1" x1="517.95" y1="181.99" x2="508.03" y2="164.8"/>
<line class="st1" x1="517.95" y1="206.53" x2="508.03" y2="223.72"/>
<line class="st1" x1="512.77" y1="201.35" x2="495.58" y2="211.27"/>
<line class="st1" x1="537.31" y1="201.35" x2="554.5" y2="211.27"/>
<line class="st1" x1="532.13" y1="181.99" x2="542.05" y2="164.8"/>
<line class="st1" x1="539.21" y1="194.26" x2="559.05" y2="194.26"/>
<line class="st1" x1="532.13" y1="206.53" x2="542.05" y2="223.72"/>
<line class="st1" x1="512.77" y1="187.17" x2="495.58" y2="177.25"/>
<line class="st1" x1="525.04" y1="180.09" x2="525.04" y2="160.24"/>
<line class="st1" x1="510.87" y1="194.26" x2="491.02" y2="194.26"/>
<line class="st1" x1="537.31" y1="286.39" x2="554.5" y2="276.46"/>
<line class="st1" x1="517.95" y1="281.2" x2="508.03" y2="264.01"/>
<line class="st1" x1="517.95" y1="305.75" x2="508.03" y2="322.93"/>
<line class="st1" x1="512.77" y1="300.56" x2="495.58" y2="310.48"/>
<line class="st1" x1="537.31" y1="300.56" x2="554.5" y2="310.48"/>
<line class="st1" x1="532.13" y1="281.2" x2="542.05" y2="264.01"/>
<line class="st1" x1="539.21" y1="293.47" x2="559.05" y2="293.47"/>
<line class="st1" x1="532.13" y1="305.75" x2="542.05" y2="322.93"/>
<line class="st1" x1="512.77" y1="286.39" x2="495.58" y2="276.46"/>
<line class="st1" x1="525.04" y1="279.3" x2="525.04" y2="259.46"/>
<line class="st1" x1="510.87" y1="293.47" x2="491.02" y2="293.47"/>
<line class="st1" x1="85.67" y1="279.3" x2="85.67" y2="259.46"/>
<line class="st1" x1="78.58" y1="281.2" x2="68.66" y2="264.01"/>
<line class="st1" x1="73.39" y1="286.39" x2="56.21" y2="276.46"/>
<line class="st1" x1="71.5" y1="293.47" x2="51.65" y2="293.47"/>
<line class="st1" x1="73.39" y1="300.56" x2="56.21" y2="310.48"/>
<line class="st1" x1="78.58" y1="305.75" x2="68.66" y2="322.93"/>
<line class="st1" x1="92.76" y1="305.75" x2="102.68" y2="322.93"/>
<line class="st1" x1="97.94" y1="300.56" x2="115.13" y2="310.48"/>
<line class="st1" x1="99.84" y1="293.47" x2="119.69" y2="293.47"/>
<line class="st1" x1="97.94" y1="286.39" x2="115.13" y2="276.46"/>
<line class="st1" x1="92.76" y1="281.2" x2="102.68" y2="264.01"/>
<line class="st1" x1="97.94" y1="87.96" x2="115.13" y2="78.04"/>
<line class="st1" x1="85.67" y1="80.87" x2="85.67" y2="61.03"/>
<line class="st1" x1="99.84" y1="95.05" x2="119.69" y2="95.05"/>
<line class="st1" x1="78.58" y1="107.32" x2="68.66" y2="124.5"/>
<line class="st1" x1="78.58" y1="82.77" x2="68.66" y2="65.59"/>
<line class="st1" x1="73.39" y1="102.13" x2="56.21" y2="112.05"/>
<line class="st1" x1="92.76" y1="107.32" x2="102.68" y2="124.5"/>
<line class="st1" x1="97.94" y1="102.13" x2="115.13" y2="112.05"/>
<line class="st1" x1="92.76" y1="82.77" x2="102.68" y2="65.59"/>
<line class="st1" x1="73.39" y1="87.96" x2="56.21" y2="78.04"/>
<line class="st1" x1="71.5" y1="95.05" x2="51.65" y2="95.05"/>
<line class="st1" x1="97.94" y1="187.17" x2="115.13" y2="177.25"/>
<line class="st1" x1="85.67" y1="180.09" x2="85.67" y2="160.24"/>
<line class="st1" x1="99.84" y1="194.26" x2="119.69" y2="194.26"/>
<line class="st1" x1="78.58" y1="206.53" x2="68.66" y2="223.72"/>
<line class="st1" x1="78.58" y1="181.99" x2="68.66" y2="164.8"/>
<line class="st1" x1="73.39" y1="201.34" x2="56.21" y2="211.27"/>
<line class="st1" x1="92.76" y1="206.53" x2="102.68" y2="223.72"/>
<line class="st1" x1="97.94" y1="201.34" x2="115.13" y2="211.27"/>
<line class="st1" x1="92.76" y1="181.99" x2="102.68" y2="164.8"/>
<line class="st1" x1="73.39" y1="187.17" x2="56.21" y2="177.25"/>
<line class="st1" x1="71.5" y1="194.26" x2="51.65" y2="194.26"/>
<line class="st1" x1="438.1" y1="288.66" x2="455.29" y2="278.74"/>
<line class="st1" x1="418.74" y1="283.48" x2="408.82" y2="266.29"/>
<line class="st1" x1="418.74" y1="308.02" x2="408.82" y2="325.21"/>
<line class="st1" x1="413.55" y1="302.84" x2="396.37" y2="312.76"/>
<line class="st1" x1="438.1" y1="302.84" x2="455.29" y2="312.76"/>
<line class="st1" x1="432.91" y1="283.48" x2="442.83" y2="266.29"/>
<line class="st1" x1="440" y1="295.75" x2="459.84" y2="295.75"/>
<line class="st1" x1="432.91" y1="308.02" x2="442.83" y2="325.21"/>
<line class="st1" x1="413.55" y1="288.66" x2="396.37" y2="278.74"/>
<line class="st1" x1="425.83" y1="281.58" x2="425.83" y2="261.73"/>
<line class="st1" x1="411.65" y1="295.75" x2="391.81" y2="295.75"/>
<line class="st1" x1="437.74" y1="187.11" x2="454.92" y2="177.19"/>
<line class="st1" x1="418.38" y1="181.93" x2="408.46" y2="164.74"/>
<line class="st1" x1="418.38" y1="206.47" x2="408.46" y2="223.66"/>
<line class="st1" x1="413.19" y1="201.29" x2="396.01" y2="211.21"/>
<line class="st1" x1="437.74" y1="201.29" x2="454.92" y2="211.21"/>
<line class="st1" x1="432.55" y1="181.93" x2="442.47" y2="164.74"/>
<line class="st1" x1="439.64" y1="194.2" x2="459.48" y2="194.2"/>
<line class="st1" x1="432.55" y1="206.47" x2="442.47" y2="223.66"/>
<line class="st1" x1="413.19" y1="187.11" x2="396.01" y2="177.19"/>
<line class="st1" x1="425.47" y1="180.03" x2="425.47" y2="160.18"/>
<line class="st1" x1="411.29" y1="194.2" x2="391.45" y2="194.2"/>
<line class="st1" x1="437.74" y1="88.06" x2="454.92" y2="78.14"/>
<line class="st1" x1="418.38" y1="82.87" x2="408.46" y2="65.69"/>
<line class="st1" x1="418.38" y1="107.42" x2="408.46" y2="124.6"/>
<line class="st1" x1="413.19" y1="102.23" x2="396.01" y2="112.15"/>
<line class="st1" x1="437.74" y1="102.23" x2="454.92" y2="112.15"/>
<line class="st1" x1="432.55" y1="82.87" x2="442.47" y2="65.69"/>
<line class="st1" x1="439.64" y1="95.15" x2="459.48" y2="95.15"/>
<line class="st1" x1="432.55" y1="107.42" x2="442.47" y2="124.6"/>
<line class="st1" x1="413.19" y1="88.06" x2="396.01" y2="78.14"/>
<line class="st1" x1="425.47" y1="80.97" x2="425.47" y2="61.13"/>
<line class="st1" x1="411.29" y1="95.15" x2="391.45" y2="95.15"/>
<line class="st1" x1="338.89" y1="187.17" x2="356.07" y2="177.25"/>
<line class="st1" x1="319.53" y1="181.99" x2="309.61" y2="164.8"/>
<line class="st1" x1="319.53" y1="206.53" x2="309.61" y2="223.72"/>
<line class="st1" x1="314.34" y1="201.34" x2="297.16" y2="211.27"/>
<line class="st1" x1="338.89" y1="201.34" x2="356.07" y2="211.27"/>
<line class="st1" x1="333.7" y1="181.99" x2="343.62" y2="164.8"/>
<line class="st1" x1="340.79" y1="194.26" x2="360.63" y2="194.26"/>
<line class="st1" x1="333.7" y1="206.53" x2="343.62" y2="223.72"/>
<line class="st1" x1="314.34" y1="187.17" x2="297.16" y2="177.25"/>
<line class="st1" x1="326.61" y1="180.09" x2="326.61" y2="160.24"/>
<line class="st1" x1="312.44" y1="194.26" x2="292.6" y2="194.26"/>
<line class="st1" x1="338.77" y1="286.98" x2="355.95" y2="277.06"/>
<line class="st1" x1="319.41" y1="281.79" x2="309.49" y2="264.61"/>
<line class="st1" x1="319.41" y1="306.34" x2="309.49" y2="323.53"/>
<line class="st1" x1="314.22" y1="301.15" x2="297.04" y2="311.08"/>
<line class="st1" x1="338.77" y1="301.15" x2="355.95" y2="311.08"/>
<line class="st1" x1="333.58" y1="281.79" x2="343.5" y2="264.61"/>
<line class="st1" x1="340.67" y1="294.07" x2="360.51" y2="294.07"/>
<line class="st1" x1="333.58" y1="306.34" x2="343.5" y2="323.53"/>
<line class="st1" x1="314.22" y1="286.98" x2="297.04" y2="277.06"/>
<line class="st1" x1="326.5" y1="279.89" x2="326.5" y2="260.05"/>
<line class="st1" x1="312.32" y1="294.07" x2="292.48" y2="294.07"/>
<line class="st1" x1="220.31" y1="83.19" x2="210.39" y2="66.01"/>
<line class="st1" x1="220.31" y1="107.74" x2="210.39" y2="124.92"/>
<line class="st1" x1="234.49" y1="83.19" x2="244.41" y2="66.01"/>
<line class="st1" x1="241.57" y1="95.46" x2="261.42" y2="95.46"/>
<line class="st1" x1="234.49" y1="107.74" x2="244.41" y2="124.92"/>
<line class="st1" x1="213.23" y1="95.46" x2="193.39" y2="95.46"/>
<line class="st1" x1="220.32" y1="182.65" x2="210.39" y2="165.46"/>
<line class="st1" x1="220.32" y1="207.19" x2="210.39" y2="224.38"/>
<line class="st1" x1="234.49" y1="182.65" x2="244.41" y2="165.46"/>
<line class="st1" x1="241.58" y1="194.92" x2="261.42" y2="194.92"/>
<line class="st1" x1="234.49" y1="207.19" x2="244.41" y2="224.38"/>
<line class="st1" x1="213.23" y1="194.92" x2="193.39" y2="194.92"/>
<line class="st1" x1="220.32" y1="281.2" x2="210.39" y2="264.01"/>
<line class="st1" x1="220.32" y1="305.75" x2="210.39" y2="322.93"/>
<line class="st1" x1="234.49" y1="281.2" x2="244.41" y2="264.01"/>
<line class="st1" x1="241.58" y1="293.47" x2="261.42" y2="293.47"/>
<line class="st1" x1="234.49" y1="305.75" x2="244.41" y2="322.93"/>
<line class="st1" x1="213.23" y1="293.47" x2="193.39" y2="293.47"/>
<line class="st1" x1="1184.49" y1="87.43" x2="1201.68" y2="77.51"/>
<line class="st1" x1="1165.13" y1="82.24" x2="1155.21" y2="65.06"/>
<line class="st1" x1="1165.13" y1="106.79" x2="1155.21" y2="123.97"/>
<line class="st1" x1="1159.94" y1="101.6" x2="1142.76" y2="111.52"/>
<line class="st1" x1="1184.49" y1="101.6" x2="1201.68" y2="111.52"/>
<line class="st1" x1="1179.3" y1="82.24" x2="1189.22" y2="65.06"/>
<line class="st1" x1="1186.39" y1="94.52" x2="1206.23" y2="94.52"/>
<line class="st1" x1="1179.3" y1="106.79" x2="1189.22" y2="123.97"/>
<line class="st1" x1="1159.94" y1="87.43" x2="1142.76" y2="77.51"/>
<line class="st1" x1="1172.22" y1="80.34" x2="1172.22" y2="60.5"/>
<line class="st1" x1="1158.05" y1="94.52" x2="1138.2" y2="94.52"/>
<line class="st1" x1="1085.28" y1="287.03" x2="1102.46" y2="277.11"/>
<line class="st1" x1="1065.92" y1="281.85" x2="1056" y2="264.66"/>
<line class="st1" x1="1065.92" y1="306.39" x2="1056" y2="323.58"/>
<line class="st1" x1="1060.73" y1="301.21" x2="1043.55" y2="311.13"/>
<line class="st1" x1="1085.28" y1="301.21" x2="1102.46" y2="311.13"/>
<line class="st1" x1="1080.09" y1="281.85" x2="1090.01" y2="264.66"/>
<line class="st1" x1="1087.18" y1="294.12" x2="1107.02" y2="294.12"/>
<line class="st1" x1="1080.09" y1="306.39" x2="1090.01" y2="323.58"/>
<line class="st1" x1="1060.73" y1="287.03" x2="1043.55" y2="277.11"/>
<line class="st1" x1="1073" y1="279.95" x2="1073" y2="260.1"/>
<line class="st1" x1="1058.83" y1="294.12" x2="1038.99" y2="294.12"/>
<line class="st1" x1="884.68" y1="184.16" x2="899.19" y2="170.63"/>
<line class="st1" x1="888.03" y1="190.15" x2="907.15" y2="184.84"/>
<line class="st1" x1="841.74" y1="202.68" x2="860.97" y2="197.78"/>
<line class="st1" x1="888.13" y1="197.69" x2="907.39" y2="202.47"/>
<line class="st1" x1="985.94" y1="187.55" x2="1003.12" y2="177.63"/>
<line class="st1" x1="966.58" y1="182.37" x2="956.65" y2="165.18"/>
<line class="st1" x1="966.58" y1="206.91" x2="956.65" y2="224.1"/>
<line class="st1" x1="961.39" y1="201.72" x2="944.2" y2="211.65"/>
<line class="st1" x1="980.75" y1="182.37" x2="990.67" y2="165.18"/>
<line class="st1" x1="987.84" y1="194.64" x2="1007.68" y2="194.64"/>
<line class="st1" x1="980.75" y1="206.91" x2="990.67" y2="224.1"/>
<line class="st1" x1="961.39" y1="187.55" x2="944.2" y2="177.63"/>
<line class="st1" x1="973.66" y1="180.46" x2="973.66" y2="160.62"/>
<line class="st1" x1="959.49" y1="194.64" x2="939.65" y2="194.64"/>
<line class="st1" x1="983.76" y1="184.54" x2="998.28" y2="171.01"/>
<line class="st1" x1="987.11" y1="190.53" x2="1006.23" y2="185.22"/>
<line class="st1" x1="940.83" y1="203.06" x2="960.06" y2="198.16"/>
<line class="st1" x1="987.21" y1="198.07" x2="1006.47" y2="202.85"/>
<line class="st1" x1="886.56" y1="287.06" x2="903.74" y2="277.14"/>
<line class="st1" x1="867.2" y1="281.88" x2="857.28" y2="264.69"/>
<line class="st1" x1="867.2" y1="306.42" x2="857.28" y2="323.61"/>
<line class="st1" x1="862.01" y1="301.23" x2="844.82" y2="311.16"/>
<line class="st1" x1="881.37" y1="281.88" x2="891.29" y2="264.69"/>
<line class="st1" x1="888.46" y1="294.15" x2="908.3" y2="294.15"/>
<line class="st1" x1="881.37" y1="306.42" x2="891.29" y2="323.61"/>
<line class="st1" x1="862.01" y1="287.06" x2="844.82" y2="277.14"/>
<line class="st1" x1="874.28" y1="279.97" x2="874.28" y2="260.13"/>
<line class="st1" x1="860.11" y1="294.15" x2="840.27" y2="294.15"/>
<line class="st1" x1="884.38" y1="284.05" x2="898.9" y2="270.52"/>
<line class="st1" x1="887.73" y1="290.04" x2="906.85" y2="284.73"/>
<line class="st1" x1="841.45" y1="302.57" x2="860.68" y2="297.67"/>
<line class="st1" x1="887.84" y1="297.58" x2="907.09" y2="302.36"/>
<line class="st1" x1="985.57" y1="286.92" x2="1002.75" y2="277"/>
<line class="st1" x1="966.21" y1="281.73" x2="956.29" y2="264.55"/>
<line class="st1" x1="966.21" y1="306.28" x2="956.29" y2="323.47"/>
<line class="st1" x1="961.02" y1="301.09" x2="943.83" y2="311.02"/>
<line class="st1" x1="980.38" y1="281.73" x2="990.3" y2="264.55"/>
<line class="st1" x1="987.47" y1="294.01" x2="1007.31" y2="294.01"/>
<line class="st1" x1="980.38" y1="306.28" x2="990.3" y2="323.47"/>
<line class="st1" x1="961.02" y1="286.92" x2="943.83" y2="277"/>
<line class="st1" x1="973.29" y1="279.83" x2="973.29" y2="259.99"/>
<line class="st1" x1="959.12" y1="294.01" x2="939.28" y2="294.01"/>
<line class="st1" x1="983.39" y1="283.91" x2="997.91" y2="270.38"/>
<line class="st1" x1="986.74" y1="289.9" x2="1005.86" y2="284.59"/>
<line class="st1" x1="940.46" y1="302.43" x2="959.69" y2="297.53"/>
<line class="st1" x1="986.85" y1="297.44" x2="1006.1" y2="302.22"/>
<line class="st1" x1="445.96" y1="251.68" x2="445.96" y2="260.98"/>
<line class="st1" x1="445.96" y1="251.68" x2="451.52" y2="251.68"/>
<line class="st1" x1="451.52" y1="260.98" x2="455.88" y2="260.98"/>
<line class="st1" x1="463.84" y1="290.82" x2="463.84" y2="300.12"/>
<line class="st1" x1="463.84" y1="290.82" x2="468.13" y2="290.82"/>
<line class="st1" x1="468.13" y1="300.12" x2="473.76" y2="300.12"/>
<line class="st1" x1="397.85" y1="336.25" x2="402.81" y2="325.69"/>
<line class="st1" x1="407.77" y1="336.25" x2="402.81" y2="325.69"/>
<line class="st1" x1="389.82" y1="300.14" x2="380.91" y2="289.95"/>
<line class="st1" x1="380.91" y1="289.95" x2="380.91" y2="300.14"/>
<line class="st1" x1="396.39" y1="261" x2="404.91" y2="251.26"/>
<line class="st1" x1="405.91" y1="252.26" x2="405.91" y2="262"/>
<line class="st1" x1="451.52" y1="251.68" x2="451.52" y2="260.98"/>
<line class="st1" x1="468.13" y1="290.82" x2="468.13" y2="300.12"/>
<line class="st1" x1="445.96" y1="326.32" x2="445.96" y2="335.62"/>
<line class="st1" x1="445.96" y1="326.32" x2="449.5" y2="326.32"/>
<line class="st1" x1="449.5" y1="326.32" x2="449.5" y2="335.62"/>
<line class="st1" x1="449.5" y1="335.62" x2="455.88" y2="335.62"/>
<line class="st1" x1="397.85" y1="235.36" x2="402.81" y2="224.8"/>
<line class="st1" x1="407.77" y1="235.36" x2="402.81" y2="224.8"/>
<line class="st1" x1="389.82" y1="199.26" x2="380.91" y2="189.06"/>
<line class="st1" x1="380.91" y1="189.06" x2="380.91" y2="199.26"/>
<line class="st1" x1="396.39" y1="160.11" x2="404.91" y2="150.37"/>
<line class="st1" x1="405.91" y1="151.37" x2="405.91" y2="161.11"/>
<line class="st1" x1="451.52" y1="150.79" x2="451.52" y2="160.09"/>
<line class="st1" x1="468.13" y1="189.93" x2="468.13" y2="199.23"/>
<line class="st1" x1="445.96" y1="225.43" x2="445.96" y2="234.73"/>
<line class="st1" x1="445.96" y1="225.43" x2="449.5" y2="225.43"/>
<line class="st1" x1="449.5" y1="225.43" x2="449.5" y2="234.73"/>
<line class="st1" x1="449.5" y1="234.73" x2="455.88" y2="234.73"/>
<line class="st1" x1="397.85" y1="136.54" x2="402.81" y2="125.98"/>
<line class="st1" x1="407.77" y1="136.54" x2="402.81" y2="125.98"/>
<line class="st1" x1="389.82" y1="100.44" x2="380.91" y2="90.24"/>
<line class="st1" x1="380.91" y1="90.24" x2="380.91" y2="100.44"/>
<line class="st1" x1="396.39" y1="61.29" x2="404.91" y2="51.55"/>
<line class="st1" x1="405.91" y1="52.55" x2="405.91" y2="62.29"/>
<line class="st1" x1="451.52" y1="51.97" x2="451.52" y2="61.27"/>
<line class="st1" x1="468.13" y1="91.11" x2="468.13" y2="100.42"/>
<line class="st1" x1="445.96" y1="126.61" x2="445.96" y2="135.91"/>
<line class="st1" x1="445.96" y1="126.61" x2="449.5" y2="126.61"/>
<line class="st1" x1="449.5" y1="126.61" x2="449.5" y2="135.91"/>
<line class="st1" x1="449.5" y1="135.91" x2="455.88" y2="135.91"/>
<text transform="matrix(1 0 0 1 304.2801 147.2438)" class="st1 st2 st3">OSC. - 2</text>
<text transform="matrix(1 0 0 1 169.1448 152.0211)" class="st1 st2 st3">ON</text>
<text transform="matrix(1 0 0 1 210.9905 48.0299)" class="st1 st2 st3">RANGE</text>
<text transform="matrix(1 0 0 1 400.281 45.0299)" class="st1 st2 st3">WAVEFORM</text>
<text transform="matrix(1 0 0 1 1042.0334 151.2447)" class="st1 st2 st3">SUSTAIN LEVEL</text>
<text transform="matrix(1 0 0 1 847.2776 151.2438)" class="st1 st2 st3">ATTACK TIME</text>
<text transform="matrix(1 0 0 1 844.5999 49.3629)" class="st1 st2 st3">CUTOFF FREQ.</text>
<text transform="matrix(1 0 0 1 948.1995 151.2438)" class="st1 st2 st3">DECAY TIME</text>
<text transform="matrix(1 0 0 1 948.8196 51.3629)" class="st1 st2 st3">EMAPHASIS</text>
<text transform="matrix(1 0 0 1 1050.1165 40.3639)"><tspan x="0" y="0" class="st1 st2 st3">AMOUNT</tspan><tspan x="-13.24" y="9.6" class="st1 st2 st3">OF COUNTOUR</tspan></text>
<text transform="matrix(1 0 0 1 506.1482 48.0299)" class="st1 st2 st3">VOLUME</text>
<text transform="matrix(1 0 0 1 957.5525 42.0338)" class="st1 st2 st4">FILTER</text>
<text transform="matrix(1 0 0 1 641.5149 89.1852)"><tspan x="0" y="0" class="st1 st2 st3">EXTERNAL </tspan><tspan x="-10.4" y="9.6" class="st1 st2 st3">INPUT VOLUME</tspan></text>
<text transform="matrix(1 0 0 1 307.0042 48.0299)"><tspan x="0" y="0" class="st1 st2 st3">OSC. -1</tspan><tspan x="-8.91" y="9.6" class="st1 st2 st3">FREQUENCY</tspan></text>
<text transform="matrix(1 0 0 1 143.4544 115.9235)"><tspan x="0" y="0" class="st1 st2 st3">OSC.</tspan><tspan x="-20.16" y="9.6" class="st1 st2 st3">MODULATION</tspan></text>
<text transform="matrix(1 0 0 1 786.9802 64.0055)"><tspan x="0" y="0" class="st1 st2 st3">FILTER</tspan><tspan x="-18.51" y="9.6" class="st1 st2 st3">MODULATION</tspan></text>
<text transform="matrix(1 0 0 1 778.6482 165.7975)"><tspan x="0" y="0" class="st1 st2 st3">KEYBOARD</tspan><tspan x="1.05" y="9.6" class="st1 st2 st3">CONTROL</tspan></text>
<text transform="matrix(1 0 0 1 304.3616 246.4557)" class="st1 st2 st3">OSC. - 3</text>
<text transform="matrix(1 0 0 1 135.6707 264.4635)"><tspan x="0" y="0" class="st1 st2 st3">OSC - 3</tspan><tspan x="-3.15" y="9.6" class="st1 st2 st3">CONTROL</tspan></text>
<text transform="matrix(1 0 0 1 63.3792 48.0299)" class="st1 st2 st5">MOD. MIX</text>
<text transform="matrix(1 0 0 1 73.1448 147.2428)" class="st1 st2 st3">TUNE</text>
<text transform="matrix(1 0 0 1 73.1448 246.4557)" class="st1 st2 st3">GLIDE</text>
<text transform="matrix(1 0 0 1 814.1331 105.6373)" class="st1 st2 st3">ON</text>
<text transform="matrix(1 0 0 1 607.1331 102.4147)" class="st1 st2 st3">ON</text>
<text transform="matrix(1 0 0 1 607.1331 168.5563)" class="st1 st2 st3">ON</text>
<text transform="matrix(1 0 0 1 607.1331 234.6979)" class="st1 st2 st3">ON</text>
<text transform="matrix(1 0 0 1 607.1331 300.8394)" class="st1 st2 st3">ON</text>
<text transform="matrix(1 0 0 1 814.1331 155.2428)" class="st1 st2 st3">ON</text>
<text transform="matrix(1 0 0 1 1183.304 303.7584)" class="st1 st2 st3">ON</text>
<text transform="matrix(1 0 0 1 780.3831 147.0201)" class="st1 st2 st3">1</text>
<text transform="matrix(1 0 0 1 780.3831 196.6275)" class="st1 st2 st3">2</text>
<text transform="matrix(1 0 0 1 810.1326 208.8502)" class="st1 st2 st3">ON</text>
<text transform="matrix(1 0 0 1 1153.3254 47.4986)" class="st1 st2 st3">VOLUME</text>
<text transform="matrix(1 0 0 1 1144.5364 271.5172)" class="st1 st2 st3">POLYPHONIC</text>
<text transform="matrix(1 0 0 1 1042.0325 250.1041)" class="st1 st2 st3">SUSTAIN LEVEL</text>
<text transform="matrix(1 0 0 1 846.9817 250.1324)" class="st1 st2 st3">ATTACK TIME</text>
<text transform="matrix(1 0 0 1 947.9036 250.1324)" class="st1 st2 st3">DECAY TIME</text>
<text transform="matrix(1 0 0 1 645.8943 196.6031)" class="st1 st2 st3">NOISE V.</text>
<text transform="matrix(1 0 0 1 945.9885 162.2511)" class="st1 st2 st3">600</text>
<text transform="matrix(1 0 0 1 846.3816 162.2516)" class="st1 st2 st3">600</text>
<text transform="matrix(1 0 0 1 891.9182 163.5563)" class="st1 st2 st3">1</text>
<text transform="matrix(1 0 0 1 905.5291 177.2516)" class="st1 st2 st3">5</text>
<text transform="matrix(1 0 0 1 908.3875 207.5318)" class="st1 st2 st3">10</text>
<text transform="matrix(1 0 0 1 834.6902 217.1998)" class="st1 st2 st3">10</text>
<text transform="matrix(1 0 0 1 838.3328 234.1002)" class="st1 st2 st3">M-SEC</text>
<text transform="matrix(1 0 0 1 885.3464 234.5572)" class="st1 st2 st3">SEC</text>
<text transform="matrix(1 0 0 1 821.0715 197.1988)" class="st1 st2 st3">200</text>
<text transform="matrix(1 0 0 1 846.3816 260.8766)" class="st1 st2 st3">600</text>
<text transform="matrix(1 0 0 1 891.9182 262.1813)" class="st1 st2 st3">1</text>
<text transform="matrix(1 0 0 1 905.5291 275.8766)" class="st1 st2 st3">5</text>
<text transform="matrix(1 0 0 1 908.3875 306.1569)" class="st1 st2 st3">10</text>
<text transform="matrix(1 0 0 1 834.6902 315.8248)" class="st1 st2 st3">10</text>
<text transform="matrix(1 0 0 1 838.3328 332.7252)" class="st1 st2 st3">M-SEC</text>
<text transform="matrix(1 0 0 1 885.3464 333.1823)" class="st1 st2 st3">SEC</text>
<text transform="matrix(1 0 0 1 821.0715 295.8239)" class="st1 st2 st3">200</text>
<text transform="matrix(1 0 0 1 946.0955 260.8766)" class="st1 st2 st3">600</text>
<text transform="matrix(1 0 0 1 991.6321 262.1813)" class="st1 st2 st3">1</text>
<text transform="matrix(1 0 0 1 1005.2429 275.8766)" class="st1 st2 st3">5</text>
<text transform="matrix(1 0 0 1 1008.1013 306.1569)" class="st1 st2 st3">10</text>
<text transform="matrix(1 0 0 1 934.4041 315.8248)" class="st1 st2 st3">10</text>
<text transform="matrix(1 0 0 1 938.0466 332.7252)" class="st1 st2 st3">M-SEC</text>
<text transform="matrix(1 0 0 1 985.0603 333.1823)" class="st1 st2 st3">SEC</text>
<text transform="matrix(1 0 0 1 920.7854 295.8239)" class="st1 st2 st3">200</text>
<text transform="matrix(1 0 0 1 832.3225 76.2662)" class="st1 st2 st3">-2</text>
<text transform="matrix(1 0 0 1 908.1941 76.2662)" class="st1 st2 st3">2</text>
<text transform="matrix(1 0 0 1 830.8547 119.1901)" class="st1 st2 st3">-4</text>
<text transform="matrix(1 0 0 1 908.7268 119.1901)" class="st1 st2 st3">4</text>
<text transform="matrix(1 0 0 1 871.3499 58.6647)" class="st1 st2 st3">0</text>
<text transform="matrix(1 0 0 1 44.075 175.2003)" class="st1 st2 st3">-2</text>
<text transform="matrix(1 0 0 1 119.9471 175.2003)" class="st1 st2 st3">2</text>
<text transform="matrix(1 0 0 1 42.6077 218.1241)" class="st1 st2 st3">-4</text>
<text transform="matrix(1 0 0 1 120.4798 218.1241)" class="st1 st2 st3">4</text>
<text transform="matrix(1 0 0 1 83.1028 157.5987)" class="st1 st2 st3">0</text>
<text transform="matrix(1 0 0 1 283.8299 219.1998)" class="st1 st2 st3">-7</text>
<text transform="matrix(1 0 0 1 356.8689 219.1998)" class="st1 st2 st3">7</text>
<text transform="matrix(1 0 0 1 279.1756 196.7955)" class="st1 st2 st3">-5</text>
<text transform="matrix(1 0 0 1 284.4261 177.6305)" class="st1 st2 st3">-3</text>
<text transform="matrix(1 0 0 1 359.1311 176.9518)" class="st1 st2 st3">3</text>
<text transform="matrix(1 0 0 1 363.1482 196.7955)" class="st1 st2 st3">5</text>
<text transform="matrix(1 0 0 1 300.9016 162.5455)" class="st1 st2 st3">-1</text>
<text transform="matrix(1 0 0 1 344.0237 162.5455)" class="st1 st2 st3">1</text>
<text transform="matrix(1 0 0 1 283.8299 319.1168)" class="st1 st2 st3">-7</text>
<text transform="matrix(1 0 0 1 356.8689 319.1168)" class="st1 st2 st3">7</text>
<text transform="matrix(1 0 0 1 279.1756 296.7125)" class="st1 st2 st3">-5</text>
<text transform="matrix(1 0 0 1 284.4261 277.5475)" class="st1 st2 st3">-3</text>
<text transform="matrix(1 0 0 1 359.1311 276.8688)" class="st1 st2 st3">3</text>
<text transform="matrix(1 0 0 1 363.1482 296.7125)" class="st1 st2 st3">5</text>
<text transform="matrix(1 0 0 1 300.9016 262.4625)" class="st1 st2 st3">-1</text>
<text transform="matrix(1 0 0 1 344.0237 262.4625)" class="st1 st2 st3">1</text>
<text transform="matrix(1 0 0 1 200.7644 331.8473)" class="st1 st2 st3">LO</text>
<text transform="matrix(1 0 0 1 179.3543 295.3473)"><tspan x="0" y="0" class="st1 st2 st3">32</tspan><tspan x="9.34" y="0" class="st1 st6 st3">’</tspan></text>
<text transform="matrix(1 0 0 1 264.2869 295.3473)"><tspan x="0" y="0" class="st1 st2 st3">4</tspan><tspan x="5.67" y="0" class="st1 st6 st3">’</tspan></text>
<text transform="matrix(1 0 0 1 201.1604 260.0973)"><tspan x="0" y="0" class="st1 st2 st3">16</tspan><tspan x="8.8" y="0" class="st1 st7 st3">’</tspan></text>
<text transform="matrix(1 0 0 1 244.2625 260.0973)"><tspan x="0" y="0" class="st1 st2 st3">8</tspan><tspan x="5.52" y="0" class="st1 st6 st3">’</tspan></text>
<text transform="matrix(1 0 0 1 245.6551 331.8473)"><tspan x="0" y="0" class="st1 st2 st3">2</tspan><tspan x="4.74" y="0" class="st1 st6 st3">’</tspan></text>
<text transform="matrix(1 0 0 1 200.7644 233.0738)" class="st1 st2 st3">LO</text>
<text transform="matrix(1 0 0 1 179.3543 196.5738)"><tspan x="0" y="0" class="st1 st2 st3">32</tspan><tspan x="9.34" y="0" class="st1 st6 st3">’</tspan></text>
<text transform="matrix(1 0 0 1 264.2869 196.5738)"><tspan x="0" y="0" class="st1 st2 st3">4</tspan><tspan x="5.67" y="0" class="st1 st6 st3">’</tspan></text>
<text transform="matrix(1 0 0 1 201.1604 161.3238)"><tspan x="0" y="0" class="st1 st2 st3">16</tspan><tspan x="8.8" y="0" class="st1 st7 st3">’</tspan></text>
<text transform="matrix(1 0 0 1 244.2625 161.3238)"><tspan x="0" y="0" class="st1 st2 st3">8</tspan><tspan x="5.52" y="0" class="st1 st6 st3">’</tspan></text>
<text transform="matrix(1 0 0 1 245.6551 233.0738)"><tspan x="0" y="0" class="st1 st2 st3">2</tspan><tspan x="4.74" y="0" class="st1 st6 st3">’</tspan></text>
<text transform="matrix(1 0 0 1 200.7644 134.4249)" class="st1 st2 st3">LO</text>
<text transform="matrix(1 0 0 1 179.3543 97.9254)"><tspan x="0" y="0" class="st1 st2 st3">32</tspan><tspan x="9.34" y="0" class="st1 st6 st3">’</tspan></text>
<text transform="matrix(1 0 0 1 264.2869 97.9254)"><tspan x="0" y="0" class="st1 st2 st3">4</tspan><tspan x="5.67" y="0" class="st1 st6 st3">’</tspan></text>
<text transform="matrix(1 0 0 1 201.1604 62.6754)"><tspan x="0" y="0" class="st1 st2 st3">16</tspan><tspan x="8.8" y="0" class="st1 st7 st3">’</tspan></text>
<text transform="matrix(1 0 0 1 244.2625 62.6754)"><tspan x="0" y="0" class="st1 st2 st3">8</tspan><tspan x="5.52" y="0" class="st1 st6 st3">’</tspan></text>
<text transform="matrix(1 0 0 1 245.6551 134.4249)"><tspan x="0" y="0" class="st1 st2 st3">2</tspan><tspan x="4.74" y="0" class="st1 st6 st3">’</tspan></text>
<text transform="matrix(1 0 0 1 949.7634 133.7897)" class="st1 st2 st3">0</text>
<text transform="matrix(1 0 0 1 931.8733 97.2897)" class="st1 st2 st3">2</text>
<text transform="matrix(1 0 0 1 1011.5823 97.2897)" class="st1 st2 st3">8</text>
<text transform="matrix(1 0 0 1 951.1555 63.0397)" class="st1 st2 st3">4</text>
<text transform="matrix(1 0 0 1 991.4856 62.0397)" class="st1 st2 st3">6</text>
<text transform="matrix(1 0 0 1 990.3699 133.7897)" class="st1 st2 st3">10</text>
<text transform="matrix(1 0 0 1 643.2429 182.8434)" class="st1 st2 st3">0</text>
<text transform="matrix(1 0 0 1 625.3528 146.3434)" class="st1 st2 st3">2</text>
<text transform="matrix(1 0 0 1 705.0618 146.3434)" class="st1 st2 st3">8</text>
<text transform="matrix(1 0 0 1 644.6351 112.0934)" class="st1 st2 st3">4</text>
<text transform="matrix(1 0 0 1 684.9651 111.0934)" class="st1 st2 st3">6</text>
<text transform="matrix(1 0 0 1 683.8499 182.8434)" class="st1 st2 st3">10</text>
<text transform="matrix(1 0 0 1 61.6555 331.6989)" class="st1 st2 st3">0</text>
<text transform="matrix(1 0 0 1 43.7654 295.1989)" class="st1 st2 st3">2</text>
<text transform="matrix(1 0 0 1 123.4744 295.1989)" class="st1 st2 st3">8</text>
<text transform="matrix(1 0 0 1 63.0476 260.9489)" class="st1 st2 st3">4</text>
<text transform="matrix(1 0 0 1 103.3777 259.9484)" class="st1 st2 st3">6</text>
<text transform="matrix(1 0 0 1 102.262 331.6989)" class="st1 st2 st3">10</text>
<text transform="matrix(1 0 0 1 61.199 133.3375)" class="st1 st2 st3">0</text>
<text transform="matrix(1 0 0 1 43.3089 96.8375)" class="st1 st2 st3">2</text>
<text transform="matrix(1 0 0 1 123.0183 96.8375)" class="st1 st2 st3">8</text>
<text transform="matrix(1 0 0 1 62.5916 62.5875)" class="st1 st2 st3">4</text>
<text transform="matrix(1 0 0 1 102.9217 61.5875)" class="st1 st2 st3">6</text>
<text transform="matrix(1 0 0 1 101.8059 133.3375)" class="st1 st2 st3">10</text>
<text transform="matrix(1 0 0 1 643.2429 281.7399)" class="st1 st2 st3">0</text>
<text transform="matrix(1 0 0 1 625.3528 245.2399)" class="st1 st2 st3">2</text>
<text transform="matrix(1 0 0 1 705.0618 245.2399)" class="st1 st2 st3">8</text>
<text transform="matrix(1 0 0 1 644.6351 210.9899)" class="st1 st2 st3">4</text>
<text transform="matrix(1 0 0 1 684.9651 209.9899)" class="st1 st2 st3">6</text>
<text transform="matrix(1 0 0 1 683.8499 281.7399)" class="st1 st2 st3">10</text>
<text transform="matrix(1 0 0 1 501.51 331.6989)" class="st1 st2 st3">0</text>
<text transform="matrix(1 0 0 1 483.6199 295.1989)" class="st1 st2 st3">2</text>
<text transform="matrix(1 0 0 1 563.3293 295.1989)" class="st1 st2 st3">8</text>
<text transform="matrix(1 0 0 1 502.9021 260.9489)" class="st1 st2 st3">4</text>
<text transform="matrix(1 0 0 1 543.2327 259.9489)" class="st1 st2 st3">6</text>
<text transform="matrix(1 0 0 1 542.1169 331.6989)" class="st1 st2 st3">10</text>
<text transform="matrix(1 0 0 1 501.51 232.4781)" class="st1 st2 st3">0</text>
<text transform="matrix(1 0 0 1 483.6199 195.9781)" class="st1 st2 st3">2</text>
<text transform="matrix(1 0 0 1 563.3293 195.9781)" class="st1 st2 st3">8</text>
<text transform="matrix(1 0 0 1 502.9021 161.7281)" class="st1 st2 st3">4</text>
<text transform="matrix(1 0 0 1 543.2327 160.7281)" class="st1 st2 st3">6</text>
<text transform="matrix(1 0 0 1 542.1169 232.4781)" class="st1 st2 st3">10</text>
<text transform="matrix(1 0 0 1 501.51 134.4249)" class="st1 st2 st3">0</text>
<text transform="matrix(1 0 0 1 483.6199 97.9254)" class="st1 st2 st3">2</text>
<text transform="matrix(1 0 0 1 563.3293 97.9254)" class="st1 st2 st3">8</text>
<text transform="matrix(1 0 0 1 502.9021 63.6754)" class="st1 st2 st3">4</text>
<text transform="matrix(1 0 0 1 543.2327 62.6754)" class="st1 st2 st3">6</text>
<text transform="matrix(1 0 0 1 542.1169 134.4249)" class="st1 st2 st3">10</text>
<text transform="matrix(1 0 0 1 1049.2634 133.7901)" class="st1 st2 st3">0</text>
<text transform="matrix(1 0 0 1 1031.3733 97.2906)" class="st1 st2 st3">2</text>
<text transform="matrix(1 0 0 1 1111.0823 97.2906)" class="st1 st2 st3">8</text>
<text transform="matrix(1 0 0 1 1050.6555 63.0406)" class="st1 st2 st3">4</text>
<text transform="matrix(1 0 0 1 1090.9856 62.0397)" class="st1 st2 st3">6</text>
<text transform="matrix(1 0 0 1 1089.8699 133.7901)" class="st1 st2 st3">10</text>
<text transform="matrix(1 0 0 1 1147.6873 133.7897)" class="st1 st2 st3">0</text>
<text transform="matrix(1 0 0 1 1129.7971 97.2897)" class="st1 st2 st3">2</text>
<text transform="matrix(1 0 0 1 1209.5061 97.2897)" class="st1 st2 st3">8</text>
<text transform="matrix(1 0 0 1 1149.0793 63.0397)" class="st1 st2 st3">4</text>
<text transform="matrix(1 0 0 1 1189.4094 62.0397)" class="st1 st2 st3">6</text>
<text transform="matrix(1 0 0 1 1188.2937 133.7897)" class="st1 st2 st3">10</text>
<text transform="matrix(1 0 0 1 1049.2634 232.671)" class="st1 st2 st3">0</text>
<text transform="matrix(1 0 0 1 1031.3733 196.171)" class="st1 st2 st3">2</text>
<text transform="matrix(1 0 0 1 1111.0823 196.171)" class="st1 st2 st3">8</text>
<text transform="matrix(1 0 0 1 1050.6555 161.921)" class="st1 st2 st3">4</text>
<text transform="matrix(1 0 0 1 1090.9856 160.921)" class="st1 st2 st3">6</text>
<text transform="matrix(1 0 0 1 1089.8699 232.671)" class="st1 st2 st3">10</text>
<text transform="matrix(1 0 0 1 1049.2634 331.9034)" class="st1 st2 st3">0</text>
<text transform="matrix(1 0 0 1 1031.3733 295.4034)" class="st1 st2 st3">2</text>
<text transform="matrix(1 0 0 1 1111.0823 295.4034)" class="st1 st2 st3">8</text>
<text transform="matrix(1 0 0 1 1050.6555 261.1534)" class="st1 st2 st3">4</text>
<text transform="matrix(1 0 0 1 1090.9856 260.1534)" class="st1 st2 st3">6</text>
<text transform="matrix(1 0 0 1 1089.8699 331.9034)" class="st1 st2 st3">10</text>
<text transform="matrix(1 0 0 1 991.6321 163.5567)" class="st1 st2 st3">1</text>
<text transform="matrix(1 0 0 1 1005.2429 177.2521)" class="st1 st2 st3">5</text>
<text transform="matrix(1 0 0 1 1008.1013 207.5323)" class="st1 st2 st3">10</text>
<text transform="matrix(1 0 0 1 934.4041 217.2003)" class="st1 st2 st3">10</text>
<text transform="matrix(1 0 0 1 938.0466 234.1007)" class="st1 st2 st3">M-SEC</text>
<text transform="matrix(1 0 0 1 985.0603 234.5577)" class="st1 st2 st3">SEC</text>
<text transform="matrix(1 0 0 1 920.7854 197.1993)" class="st1 st2 st3">200</text>
<path class="st0" d="M75.32,195.06c0,5.71,4.63,10.35,10.35,10.35c5.71,0,10.35-4.63,10.35-10.35c0-5.71-4.63-10.35-10.35-10.35
	C79.96,184.71,75.32,189.34,75.32,195.06L75.32,195.06z"/>
<path class="st0" d="M656.43,244.66c0,5.71,4.63,10.35,10.35,10.35c5.71,0,10.35-4.63,10.35-10.35c0-5.71-4.63-10.35-10.35-10.35
	C661.06,234.32,656.43,238.95,656.43,244.66L656.43,244.66z"/>
<path class="st0" d="M588.68,95.84c0,3.99,3.24,7.23,7.23,7.23s7.23-3.24,7.23-7.23c0-3.99-3.24-7.23-7.23-7.23
	S588.68,91.85,588.68,95.84L588.68,95.84z"/>
<path class="st0" d="M864.23,195.06c0,5.71,4.63,10.35,10.35,10.35c5.71,0,10.35-4.63,10.35-10.35c0-5.71-4.63-10.35-10.35-10.35
	C868.87,184.71,864.23,189.34,864.23,195.06L864.23,195.06z"/>
<path class="st0" d="M514.69,294.27c0,5.71,4.63,10.35,10.35,10.35c5.71,0,10.35-4.63,10.35-10.35c0-5.71-4.63-10.35-10.35-10.35
	C519.33,283.92,514.69,288.56,514.69,294.27L514.69,294.27z"/>
<path class="st0" d="M963.45,195.06c0,5.71,4.63,10.35,10.35,10.35c5.71,0,10.35-4.63,10.35-10.35c0-5.71-4.63-10.35-10.35-10.35
	C968.08,184.71,963.45,189.34,963.45,195.06L963.45,195.06z"/>
<path class="st0" d="M415.48,95.84c0,5.71,4.63,10.35,10.35,10.35c5.71,0,10.35-4.63,10.35-10.35c0-5.71-4.63-10.35-10.35-10.35
	C420.11,85.5,415.48,90.13,415.48,95.84L415.48,95.84z"/>
<path class="st0" d="M149.31,145.45c0,3.99,3.24,7.23,7.23,7.23s7.23-3.24,7.23-7.23s-3.24-7.23-7.23-7.23
	S149.31,141.46,149.31,145.45L149.31,145.45z"/>
<path class="st0" d="M514.69,95.84c0,5.71,4.63,10.35,10.35,10.35c5.71,0,10.35-4.63,10.35-10.35c0-5.71-4.63-10.35-10.35-10.35
	C519.33,85.5,514.69,90.13,514.69,95.84L514.69,95.84z"/>
<path class="st0" d="M796.48,95.84c0,3.99,3.24,7.23,7.23,7.23s7.23-3.24,7.23-7.23c0-3.99-3.24-7.23-7.23-7.23
	S796.48,91.85,796.48,95.84L796.48,95.84z"/>
<path class="st0" d="M514.69,195.06c0,5.71,4.63,10.35,10.35,10.35c5.71,0,10.35-4.63,10.35-10.35c0-5.71-4.63-10.35-10.35-10.35
	C519.33,184.71,514.69,189.34,514.69,195.06L514.69,195.06z"/>
<path class="st0" d="M1062.66,294.27c0,5.71,4.63,10.35,10.35,10.35c5.71,0,10.35-4.63,10.35-10.35c0-5.71-4.63-10.35-10.35-10.35
	C1067.29,283.92,1062.66,288.56,1062.66,294.27L1062.66,294.27z"/>
<path class="st0" d="M864.23,294.27c0,5.71,4.63,10.35,10.35,10.35c5.71,0,10.35-4.63,10.35-10.35c0-5.71-4.63-10.35-10.35-10.35
	C868.87,283.92,864.23,288.56,864.23,294.27L864.23,294.27z"/>
<path class="st0" d="M1062.66,195.06c0,5.71,4.63,10.35,10.35,10.35c5.71,0,10.35-4.63,10.35-10.35c0-5.71-4.63-10.35-10.35-10.35
	C1067.29,184.71,1062.66,189.34,1062.66,195.06L1062.66,195.06z"/>
<path class="st0" d="M1062.66,95.84c0,5.71,4.63,10.35,10.35,10.35c5.71,0,10.35-4.63,10.35-10.35c0-5.71-4.63-10.35-10.35-10.35
	C1067.29,85.5,1062.66,90.13,1062.66,95.84L1062.66,95.84z"/>
<path class="st0" d="M217.05,95.84c0,5.71,4.63,10.35,10.35,10.35c5.71,0,10.35-4.63,10.35-10.35c0-5.71-4.63-10.35-10.35-10.35
	C221.69,85.5,217.05,90.13,217.05,95.84L217.05,95.84z"/>
<path class="st0" d="M796.48,145.45c0,3.99,3.24,7.23,7.23,7.23s7.23-3.24,7.23-7.23s-3.24-7.23-7.23-7.23
	S796.48,141.46,796.48,145.45L796.48,145.45z"/>
<path class="st0" d="M316.27,195.06c0,5.71,4.63,10.35,10.35,10.35c5.71,0,10.35-4.63,10.35-10.35c0-5.71-4.63-10.35-10.35-10.35
	C320.9,184.71,316.27,189.34,316.27,195.06L316.27,195.06z"/>
<path class="st0" d="M75.32,294.27c0,5.71,4.63,10.35,10.35,10.35c5.71,0,10.35-4.63,10.35-10.35c0-5.71-4.63-10.35-10.35-10.35
	C79.96,283.92,75.32,288.56,75.32,294.27L75.32,294.27z"/>
<path class="st0" d="M75.32,95.84c0,5.71,4.63,10.35,10.35,10.35c5.71,0,10.35-4.63,10.35-10.35c0-5.71-4.63-10.35-10.35-10.35
	C79.96,85.5,75.32,90.13,75.32,95.84L75.32,95.84z"/>
<path class="st0" d="M656.43,145.45c0,5.71,4.63,10.35,10.35,10.35c5.71,0,10.35-4.63,10.35-10.35c0-5.71-4.63-10.35-10.35-10.35
	C661.06,135.1,656.43,139.74,656.43,145.45L656.43,145.45z"/>
<path class="st0" d="M864.23,95.84c0,5.71,4.63,10.35,10.35,10.35c5.71,0,10.35-4.63,10.35-10.35c0-5.71-4.63-10.35-10.35-10.35
	C868.87,85.5,864.23,90.13,864.23,95.84L864.23,95.84z"/>
<path class="st0" d="M1161.87,95.84c0,5.71,4.63,10.35,10.35,10.35c5.71,0,10.35-4.63,10.35-10.35c0-5.71-4.63-10.35-10.35-10.35
	C1166.5,85.5,1161.87,90.13,1161.87,95.84L1161.87,95.84z"/>
<path class="st0" d="M963.45,95.84c0,5.71,4.63,10.35,10.35,10.35c5.71,0,10.35-4.63,10.35-10.35c0-5.71-4.63-10.35-10.35-10.35
	C968.08,85.5,963.45,90.13,963.45,95.84L963.45,95.84z"/>
<path class="st0" d="M588.68,228.13c0,3.99,3.24,7.23,7.23,7.23s7.23-3.24,7.23-7.23s-3.24-7.23-7.23-7.23
	S588.68,224.14,588.68,228.13L588.68,228.13z"/>
<path class="st0" d="M217.05,294.27c0,5.71,4.63,10.35,10.35,10.35c5.71,0,10.35-4.63,10.35-10.35c0-5.71-4.63-10.35-10.35-10.35
	C221.69,283.92,217.05,288.56,217.05,294.27L217.05,294.27z"/>
<path class="st0" d="M149.31,294.27c0,3.99,3.24,7.23,7.23,7.23s7.23-3.24,7.23-7.23c0-3.99-3.24-7.23-7.23-7.23
	S149.31,290.28,149.31,294.27L149.31,294.27z"/>
<path class="st0" d="M1162.15,234.74c0,5.56,4.51,10.06,10.06,10.06c5.56,0,10.06-4.5,10.06-10.06c0-5.56-4.51-10.06-10.06-10.06
	C1166.66,224.68,1162.15,229.18,1162.15,234.74L1162.15,234.74z"/>
<path class="st0" d="M730.41,244.66c0,3.99,3.24,7.23,7.23,7.23c3.99,0,7.23-3.24,7.23-7.23s-3.24-7.23-7.23-7.23
	C733.65,237.43,730.41,240.67,730.41,244.66L730.41,244.66z"/>
<path class="st0" d="M588.68,294.27c0,3.99,3.24,7.23,7.23,7.23s7.23-3.24,7.23-7.23c0-3.99-3.24-7.23-7.23-7.23
	S588.68,290.28,588.68,294.27L588.68,294.27z"/>
<path class="st0" d="M1164.99,294.27c0,3.99,3.23,7.23,7.23,7.23s7.23-3.24,7.23-7.23c0-3.99-3.24-7.23-7.23-7.23
	S1164.99,290.28,1164.99,294.27L1164.99,294.27z"/>
<path class="st0" d="M963.45,294.27c0,5.71,4.63,10.35,10.35,10.35c5.71,0,10.35-4.63,10.35-10.35c0-5.71-4.63-10.35-10.35-10.35
	C968.08,283.92,963.45,288.56,963.45,294.27L963.45,294.27z"/>
<path class="st0" d="M588.68,161.99c0,3.99,3.24,7.23,7.23,7.23s7.23-3.24,7.23-7.23c0-3.99-3.24-7.23-7.23-7.23
	S588.68,157.99,588.68,161.99L588.68,161.99z"/>
<path class="st0" d="M415.48,294.27c0,5.71,4.63,10.35,10.35,10.35c5.71,0,10.35-4.63,10.35-10.35c0-5.71-4.63-10.35-10.35-10.35
	C420.11,283.92,415.48,288.56,415.48,294.27L415.48,294.27z"/>
<path class="st0" d="M217.05,195.06c0,5.71,4.63,10.35,10.35,10.35c5.71,0,10.35-4.63,10.35-10.35c0-5.71-4.63-10.35-10.35-10.35
	C221.69,184.71,217.05,189.34,217.05,195.06L217.05,195.06z"/>
<path class="st0" d="M796.48,195.06c0,3.99,3.24,7.23,7.23,7.23s7.23-3.24,7.23-7.23c0-3.99-3.24-7.23-7.23-7.23
	S796.48,191.06,796.48,195.06L796.48,195.06z"/>
<path class="st0" d="M415.48,195.06c0,5.71,4.63,10.35,10.35,10.35c5.71,0,10.35-4.63,10.35-10.35c0-5.71-4.63-10.35-10.35-10.35
	C420.11,184.71,415.48,189.34,415.48,195.06L415.48,195.06z"/>
<path class="st0" d="M316.27,294.27c0,5.71,4.63,10.35,10.35,10.35c5.71,0,10.35-4.63,10.35-10.35c0-5.71-4.63-10.35-10.35-10.35
	C320.9,283.92,316.27,288.56,316.27,294.27L316.27,294.27z"/>
<path class="st0" d="M624.55,195.06c0,2.43,1.97,4.39,4.39,4.39c2.43,0,4.39-1.97,4.39-4.39c0-2.43-1.97-4.39-4.39-4.39
	C626.52,190.66,624.55,192.63,624.55,195.06L624.55,195.06z"/>
<path class="st0" d="M1238.39,5.73c5.93,0,10.74,4.81,10.74,10.74v357.17c0,5.93-4.81,10.74-10.74,10.74H19.49
	c-5.93,0-10.74-4.81-10.74-10.74V16.47c0-5.93,4.81-10.74,10.74-10.74H1238.39z"/>
<path class="st0" d="M1229.61,20.87c0,2.43,1.97,4.39,4.39,4.39c2.43,0,4.39-1.97,4.39-4.39c0-2.43-1.97-4.39-4.39-4.39
	C1231.57,16.47,1229.61,18.44,1229.61,20.87L1229.61,20.87z"/>
<rect x="1227.32" y="107.18" class="st0" width="11.37" height="56.69"/>
<rect x="834.46" y="362.71" class="st0" width="198.43" height="11.1"/>
<rect x="1227.32" y="226.24" class="st0" width="11.37" height="56.69"/>
<rect x="529.73" y="16.3" class="st0" width="198.43" height="11.37"/>
<rect x="225.01" y="16.17" class="st0" width="198.43" height="11.37"/>
<path class="st0" d="M19.49,20.87c0,2.43,1.97,4.39,4.39,4.39s4.39-1.97,4.39-4.39c0-2.43-1.97-4.39-4.39-4.39
	S19.49,18.44,19.49,20.87L19.49,20.87z"/>
<rect x="529.73" y="362.44" class="st0" width="198.43" height="11.37"/>
<rect x="19.2" y="226.24" class="st0" width="11.37" height="56.69"/>
<path class="st0" d="M19.49,369.25c0,2.43,1.97,4.39,4.39,4.39s4.39-1.97,4.39-4.39c0-2.43-1.97-4.39-4.39-4.39
	S19.49,366.82,19.49,369.25L19.49,369.25z"/>
<rect x="834.46" y="16.17" class="st0" width="198.43" height="11.37"/>
<path class="st0" d="M1229.61,369.25c0,2.43,1.97,4.39,4.39,4.39c2.43,0,4.39-1.97,4.39-4.39c0-2.43-1.97-4.39-4.39-4.39
	C1231.57,364.85,1229.61,366.82,1229.61,369.25L1229.61,369.25z"/>
<rect x="225.01" y="362.57" class="st0" width="198.43" height="11.37"/>
<rect x="19.2" y="107.18" class="st0" width="11.37" height="56.69"/>
<line class="st0" x1="1381.29" y1="479.66" x2="1381.29" y2="431.47"/>
<path class="st0" d="M1381.29,431.47c0-2.35-1.9-4.25-4.25-4.25"/>
<line class="st0" x1="1377.04" y1="427.22" x2="1368.54" y2="427.22"/>
<line class="st0" x1="1368.54" y1="427.22" x2="1368.54" y2="364.85"/>
<polyline class="st0" points="1368.54,364.85 1358.61,367.8 1348.69,370.16 1338.77,371.91 1328.85,372.99 1318.93,373.36 
	1309.01,372.99 1299.09,371.91 1289.17,370.16 1279.24,367.8 1269.32,364.85 "/>
<line class="st0" x1="1269.32" y1="364.85" x2="1269.32" y2="427.22"/>
<line class="st0" x1="1269.32" y1="427.22" x2="1260.82" y2="427.22"/>
<path class="st0" d="M1260.82,427.22c-2.35,0-4.25,1.9-4.25,4.25"/>
<line class="st0" x1="1256.57" y1="431.47" x2="1256.57" y2="479.66"/>
<path class="st0" d="M1256.57,479.66c0,2.35,1.9,4.25,4.25,4.25"/>
<line class="st0" x1="1260.82" y1="483.91" x2="1269.32" y2="483.91"/>
<line class="st0" x1="1269.32" y1="483.91" x2="1269.32" y2="546.27"/>
<line class="st0" x1="1269.32" y1="546.27" x2="1260.82" y2="546.27"/>
<path class="st0" d="M1260.82,546.27c-2.35,0-4.25,1.9-4.25,4.25"/>
<line class="st0" x1="1256.57" y1="550.52" x2="1256.57" y2="598.71"/>
<path class="st0" d="M1256.57,598.71c0,2.35,1.9,4.25,4.25,4.25"/>
<line class="st0" x1="1260.82" y1="602.96" x2="1269.32" y2="602.96"/>
<line class="st0" x1="1269.32" y1="602.96" x2="1269.32" y2="665.32"/>
<polyline class="st0" points="1269.32,665.32 1279.24,662.38 1289.17,660.02 1299.09,658.27 1309.01,657.19 1318.93,656.82 
	1328.85,657.19 1338.77,658.27 1348.69,660.02 1358.61,662.38 1368.54,665.32 "/>
<line class="st0" x1="1368.54" y1="665.32" x2="1368.54" y2="602.96"/>
<line class="st0" x1="1368.54" y1="602.96" x2="1377.04" y2="602.96"/>
<path class="st0" d="M1377.04,602.96c2.35,0,4.25-1.9,4.25-4.25"/>
<line class="st0" x1="1381.29" y1="598.71" x2="1381.29" y2="550.52"/>
<path class="st0" d="M1381.29,550.52c0-2.35-1.9-4.25-4.25-4.25"/>
<line class="st0" x1="1377.04" y1="546.27" x2="1368.54" y2="546.27"/>
<line class="st0" x1="1368.54" y1="546.27" x2="1368.54" y2="483.91"/>
<line class="st0" x1="1368.54" y1="483.91" x2="1377.04" y2="483.91"/>
<path class="st0" d="M1377.04,483.91c2.35,0,4.25-1.9,4.25-4.25"/>
</svg>
