%TF.GenerationSoftware,KiCad,Pcbnew,(5.1.7-0-10_14)*%
%TF.CreationDate,2020-11-07T09:55:29-03:00*%
%TF.ProjectId,MiniMood (tht),4d696e69-4d6f-46f6-9420-28746874292e,1*%
%TF.SameCoordinates,Original*%
%TF.FileFunction,Soldermask,Top*%
%TF.FilePolarity,Negative*%
%FSLAX46Y46*%
G04 Gerber Fmt 4.6, Leading zero omitted, Abs format (unit mm)*
G04 Created by KiCad (PCBNEW (5.1.7-0-10_14)) date 2020-11-07 09:55:29*
%MOMM*%
%LPD*%
G01*
G04 APERTURE LIST*
%ADD10C,1.600000*%
%ADD11R,1.600000X1.600000*%
%ADD12O,3.300000X2.000000*%
%ADD13R,1.800000X1.800000*%
%ADD14C,1.800000*%
%ADD15C,3.240000*%
%ADD16C,3.200000*%
%ADD17C,8.000000*%
%ADD18R,1.700000X1.700000*%
%ADD19O,1.700000X1.700000*%
%ADD20C,1.400000*%
%ADD21O,1.400000X1.400000*%
G04 APERTURE END LIST*
D10*
%TO.C,U3*%
X117930000Y-21430000D03*
X117930000Y-23970000D03*
X117930000Y-26510000D03*
X117930000Y-29050000D03*
X117930000Y-31590000D03*
X117930000Y-34130000D03*
X117930000Y-36670000D03*
X117930000Y-39210000D03*
X117930000Y-41750000D03*
X117930000Y-44290000D03*
X117930000Y-46830000D03*
X117930000Y-49370000D03*
X133170000Y-49370000D03*
X133170000Y-46830000D03*
X133170000Y-44290000D03*
X133170000Y-41750000D03*
X133170000Y-39210000D03*
X133170000Y-36670000D03*
X133170000Y-34130000D03*
X133170000Y-31590000D03*
X133170000Y-29050000D03*
X133170000Y-26510000D03*
X133170000Y-23970000D03*
D11*
X133170000Y-21430000D03*
%TD*%
D12*
%TO.C,SW1*%
X64550000Y-64290000D03*
X64550000Y-61690000D03*
%TD*%
%TO.C,SW2*%
X64550000Y-116790000D03*
X64550000Y-114190000D03*
%TD*%
%TO.C,SW3*%
X219550000Y-46790000D03*
X219550000Y-44190000D03*
%TD*%
%TO.C,SW4*%
X219550000Y-70123333D03*
X219550000Y-67523333D03*
%TD*%
%TO.C,SW5*%
X219550000Y-93456666D03*
X219550000Y-90856666D03*
%TD*%
%TO.C,SW6*%
X219550000Y-116790000D03*
X219550000Y-114190000D03*
%TD*%
%TO.C,SW7*%
X269550000Y-99290000D03*
X269550000Y-96690000D03*
%TD*%
%TO.C,SW8*%
X292850000Y-46890000D03*
X292850000Y-44290000D03*
%TD*%
%TO.C,SW9*%
X292850000Y-64390000D03*
X292850000Y-61790000D03*
%TD*%
%TO.C,SW10*%
X292850000Y-81890000D03*
X292850000Y-79290000D03*
%TD*%
%TO.C,SW11*%
X421550000Y-116690000D03*
X421550000Y-114090000D03*
%TD*%
D13*
%TO.C,pot3*%
X37050000Y-121690000D03*
D14*
X39550000Y-121690000D03*
X42050000Y-121690000D03*
D15*
X44350000Y-114190000D03*
X34750000Y-114190000D03*
%TD*%
D13*
%TO.C,pot2*%
X37050000Y-86690000D03*
D14*
X39550000Y-86690000D03*
X42050000Y-86690000D03*
D15*
X44350000Y-79190000D03*
X34750000Y-79190000D03*
%TD*%
D13*
%TO.C,pot4*%
X87050000Y-51690000D03*
D14*
X89550000Y-51690000D03*
X92050000Y-51690000D03*
D15*
X94350000Y-44190000D03*
X84750000Y-44190000D03*
%TD*%
D13*
%TO.C,pot5*%
X88225001Y-86690000D03*
D14*
X90725001Y-86690000D03*
X93225001Y-86690000D03*
D15*
X95525001Y-79190000D03*
X85925001Y-79190000D03*
%TD*%
D13*
%TO.C,pot6*%
X87050000Y-121690000D03*
D14*
X89550000Y-121690000D03*
X92050000Y-121690000D03*
D15*
X94350000Y-114190000D03*
X84750000Y-114190000D03*
%TD*%
D13*
%TO.C,pot7*%
X122050000Y-86690000D03*
D14*
X124550000Y-86690000D03*
X127050000Y-86690000D03*
D15*
X129350000Y-79190000D03*
X119750000Y-79190000D03*
%TD*%
D13*
%TO.C,pot8*%
X122050000Y-121690000D03*
D14*
X124550000Y-121690000D03*
X127050000Y-121690000D03*
D15*
X129350000Y-114190000D03*
X119750000Y-114190000D03*
%TD*%
D13*
%TO.C,pot9*%
X157050000Y-51690000D03*
D14*
X159550000Y-51690000D03*
X162050000Y-51690000D03*
D15*
X164350000Y-44190000D03*
X154750000Y-44190000D03*
%TD*%
D13*
%TO.C,pot10*%
X157050000Y-86690000D03*
D14*
X159550000Y-86690000D03*
X162050000Y-86690000D03*
D15*
X164350000Y-79190000D03*
X154750000Y-79190000D03*
%TD*%
D13*
%TO.C,pot11*%
X157050000Y-121690000D03*
D14*
X159550000Y-121690000D03*
X162050000Y-121690000D03*
D15*
X164350000Y-114190000D03*
X154750000Y-114190000D03*
%TD*%
D13*
%TO.C,pot12*%
X192050000Y-51690000D03*
D14*
X194550000Y-51690000D03*
X197050000Y-51690000D03*
D15*
X199350000Y-44190000D03*
X189750000Y-44190000D03*
%TD*%
D13*
%TO.C,pot13*%
X192050000Y-86690000D03*
D14*
X194550000Y-86690000D03*
X197050000Y-86690000D03*
D15*
X199350000Y-79190000D03*
X189750000Y-79190000D03*
%TD*%
D13*
%TO.C,pot14*%
X192050000Y-121690000D03*
D14*
X194550000Y-121690000D03*
X197050000Y-121690000D03*
D15*
X199350000Y-114190000D03*
X189750000Y-114190000D03*
%TD*%
D13*
%TO.C,pot15*%
X242050000Y-69190000D03*
D14*
X244550000Y-69190000D03*
X247050000Y-69190000D03*
D15*
X249350000Y-61690000D03*
X239750000Y-61690000D03*
%TD*%
D13*
%TO.C,pot16*%
X242050000Y-104190000D03*
D14*
X244550000Y-104190000D03*
X247050000Y-104190000D03*
D15*
X249350000Y-96690000D03*
X239750000Y-96690000D03*
%TD*%
D13*
%TO.C,pot17*%
X315350000Y-51690000D03*
D14*
X317850000Y-51690000D03*
X320350000Y-51690000D03*
D15*
X322650000Y-44190000D03*
X313050000Y-44190000D03*
%TD*%
D13*
%TO.C,pot18*%
X315350000Y-86690000D03*
D14*
X317850000Y-86690000D03*
X320350000Y-86690000D03*
D15*
X322650000Y-79190000D03*
X313050000Y-79190000D03*
%TD*%
D13*
%TO.C,pot19*%
X315350000Y-121690000D03*
D14*
X317850000Y-121690000D03*
X320350000Y-121690000D03*
D15*
X322650000Y-114190000D03*
X313050000Y-114190000D03*
%TD*%
D13*
%TO.C,pot20*%
X350350000Y-51690000D03*
D14*
X352850000Y-51690000D03*
X355350000Y-51690000D03*
D15*
X357650000Y-44190000D03*
X348050000Y-44190000D03*
%TD*%
D13*
%TO.C,pot21*%
X350350000Y-86690000D03*
D14*
X352850000Y-86690000D03*
X355350000Y-86690000D03*
D15*
X357650000Y-79190000D03*
X348050000Y-79190000D03*
%TD*%
D13*
%TO.C,pot22*%
X350350000Y-121690000D03*
D14*
X352850000Y-121690000D03*
X355350000Y-121690000D03*
D15*
X357650000Y-114190000D03*
X348050000Y-114190000D03*
%TD*%
D13*
%TO.C,pot23*%
X385350000Y-51690000D03*
D14*
X387850000Y-51690000D03*
X390350000Y-51690000D03*
D15*
X392650000Y-44190000D03*
X383050000Y-44190000D03*
%TD*%
D13*
%TO.C,pot24*%
X385350000Y-86690000D03*
D14*
X387850000Y-86690000D03*
X390350000Y-86690000D03*
D15*
X392650000Y-79190000D03*
X383050000Y-79190000D03*
%TD*%
D13*
%TO.C,pot25*%
X385350000Y-121690000D03*
D14*
X387850000Y-121690000D03*
X390350000Y-121690000D03*
D15*
X392650000Y-114190000D03*
X383050000Y-114190000D03*
%TD*%
D13*
%TO.C,pot26*%
X420350000Y-51690000D03*
D14*
X422850000Y-51690000D03*
X425350000Y-51690000D03*
D15*
X427650000Y-44190000D03*
X418050000Y-44190000D03*
%TD*%
D13*
%TO.C,pot1*%
X37050000Y-51690000D03*
D14*
X39550000Y-51690000D03*
X42050000Y-51690000D03*
D15*
X44350000Y-44190000D03*
X34750000Y-44190000D03*
%TD*%
D16*
%TO.C,REF\u002A\u002A*%
X231200000Y-24000000D03*
%TD*%
%TO.C,REF\u002A\u002A*%
X231200000Y-134190000D03*
%TD*%
%TO.C,REF\u002A\u002A*%
X438420000Y-134190000D03*
%TD*%
%TO.C,REF\u002A\u002A*%
X23990000Y-134190000D03*
%TD*%
%TO.C,REF\u002A\u002A*%
X23990000Y-24000000D03*
%TD*%
%TO.C,REF\u002A\u002A*%
X438420000Y-24000000D03*
%TD*%
D17*
%TO.C,REF\u002A\u002A*%
X231200000Y-79090000D03*
%TD*%
D14*
%TO.C,D1*%
X422815000Y-93090000D03*
D13*
X420275000Y-93090000D03*
%TD*%
D18*
%TO.C,J1*%
X263350000Y-42590000D03*
D19*
X265890000Y-42590000D03*
X263350000Y-45130000D03*
X265890000Y-45130000D03*
X263350000Y-47670000D03*
X265890000Y-47670000D03*
X263350000Y-50210000D03*
X265890000Y-50210000D03*
X263350000Y-52750000D03*
X265890000Y-52750000D03*
%TD*%
D10*
%TO.C,C1*%
X137340000Y-60150000D03*
X134840000Y-60150000D03*
%TD*%
%TO.C,C2*%
X263385001Y-63835001D03*
X260885001Y-63835001D03*
%TD*%
D20*
%TO.C,R1*%
X417690000Y-87050000D03*
D21*
X422770000Y-87050000D03*
%TD*%
M02*
