M48
; DRILL file {KiCad (5.1.7-0-10_14)} date Saturday, November 07, 2020 at 09:55:32 AM
; FORMAT={-:-/ absolute / metric / decimal}
; #@! TF.CreationDate,2020-11-07T09:55:32-03:00
; #@! TF.GenerationSoftware,Kicad,Pcbnew,(5.1.7-0-10_14)
; #@! TF.FileFunction,Plated,1,2,PTH
FMAT,2
METRIC
T1C0.400
T2C0.700
T3C0.800
T4C0.900
T5C1.000
T6C1.100
T7C1.800
%
G90
G05
T1
X110.94Y-55.42
X111.15Y-87.64
X111.83Y-60.28
X112.07Y-86.4
X112.63Y-58.29
X112.99Y-85.34
X113.8Y-84.17
X114.84Y-82.9
X115.29Y-61.77
X116.21Y-82.16
X116.713Y-61.373
X118.725Y-60.385
X119.94Y-56.08
X121.367Y-53.627
X121.403Y-58.733
X122.33Y-52.11
X122.928Y-57.208
X124.728Y-55.408
X132.61Y-60.16
X137.567Y-25.523
X137.81Y-32.82
X138.33Y-37.42
X139.16Y-55.66
X139.27Y-38.54
X139.29Y-56.97
X139.475Y-49.64
X139.475Y-58.16
X139.492Y-27.448
X139.995Y-37.716
X140.096Y-25.364
X140.77Y-42.59
X140.895Y-75.39
X140.925Y-50.04
X142.132Y-69.032
X142.42Y-35.565
X142.42Y-57.94
X142.622Y-30.578
X142.795Y-74.81
X142.879Y-27.511
X143.08Y-42.59
X144.885Y-55.02
X144.953Y-72.073
X145.335Y-53.08
X146.282Y-30.278
X146.282Y-30.278
X251.16Y-30.945
X254.29Y-50.02
X255.25Y-31.395
X256.06Y-44.38
X257.52Y-31.845
X257.6Y-69.71
X258.358Y-81.028
X259.97Y-32.295
X260.233Y-66.537
X264.44Y-32.745
X270.525Y-49.15
X271.425Y-74.2
X271.608Y-76.658
X273.775Y-52.0
T2
X417.69Y-87.05
X422.77Y-87.05
T3
X134.84Y-60.15
X137.34Y-60.15
X260.885Y-63.835
X263.385Y-63.835
T4
X420.275Y-93.09
X422.815Y-93.09
T5
X37.05Y-51.69
X39.55Y-51.69
X42.05Y-51.69
X385.35Y-51.69
X387.85Y-51.69
X390.35Y-51.69
X315.35Y-51.69
X317.85Y-51.69
X320.35Y-51.69
X350.35Y-86.69
X352.85Y-86.69
X355.35Y-86.69
X242.05Y-69.19
X244.55Y-69.19
X247.05Y-69.19
X88.225Y-86.69
X90.725Y-86.69
X93.225Y-86.69
X157.05Y-51.69
X159.55Y-51.69
X162.05Y-51.69
X350.35Y-51.69
X352.85Y-51.69
X355.35Y-51.69
X87.05Y-121.69
X89.55Y-121.69
X92.05Y-121.69
X263.35Y-42.59
X263.35Y-45.13
X263.35Y-47.67
X263.35Y-50.21
X263.35Y-52.75
X265.89Y-42.59
X265.89Y-45.13
X265.89Y-47.67
X265.89Y-50.21
X265.89Y-52.75
X315.35Y-121.69
X317.85Y-121.69
X320.35Y-121.69
X242.05Y-104.19
X244.55Y-104.19
X247.05Y-104.19
X157.05Y-86.69
X159.55Y-86.69
X162.05Y-86.69
X420.35Y-51.69
X422.85Y-51.69
X425.35Y-51.69
X122.05Y-86.69
X124.55Y-86.69
X127.05Y-86.69
X385.35Y-86.69
X387.85Y-86.69
X390.35Y-86.69
X192.05Y-51.69
X194.55Y-51.69
X197.05Y-51.69
X192.05Y-86.69
X194.55Y-86.69
X197.05Y-86.69
X37.05Y-86.69
X39.55Y-86.69
X42.05Y-86.69
X315.35Y-86.69
X317.85Y-86.69
X320.35Y-86.69
X157.05Y-121.69
X159.55Y-121.69
X162.05Y-121.69
X122.05Y-121.69
X124.55Y-121.69
X127.05Y-121.69
X385.35Y-121.69
X387.85Y-121.69
X390.35Y-121.69
X350.35Y-121.69
X352.85Y-121.69
X355.35Y-121.69
X192.05Y-121.69
X194.55Y-121.69
X197.05Y-121.69
X87.05Y-51.69
X89.55Y-51.69
X92.05Y-51.69
X37.05Y-121.69
X39.55Y-121.69
X42.05Y-121.69
T6
X117.93Y-21.43
X117.93Y-23.97
X117.93Y-26.51
X117.93Y-29.05
X117.93Y-31.59
X117.93Y-34.13
X117.93Y-36.67
X117.93Y-39.21
X117.93Y-41.75
X117.93Y-44.29
X117.93Y-46.83
X117.93Y-49.37
X133.17Y-21.43
X133.17Y-23.97
X133.17Y-26.51
X133.17Y-29.05
X133.17Y-31.59
X133.17Y-34.13
X133.17Y-36.67
X133.17Y-39.21
X133.17Y-41.75
X133.17Y-44.29
X133.17Y-46.83
X133.17Y-49.37
T7
X154.75Y-44.19
X164.35Y-44.19
X348.05Y-44.19
X357.65Y-44.19
X84.75Y-114.19
X94.35Y-114.19
X313.05Y-114.19
X322.65Y-114.19
X239.75Y-96.69
X249.35Y-96.69
X154.75Y-79.19
X164.35Y-79.19
X418.05Y-44.19
X427.65Y-44.19
X119.75Y-79.19
X129.35Y-79.19
X383.05Y-79.19
X392.65Y-79.19
X189.75Y-44.19
X199.35Y-44.19
X189.75Y-79.19
X199.35Y-79.19
X34.75Y-79.19
X44.35Y-79.19
X313.05Y-79.19
X322.65Y-79.19
X154.75Y-114.19
X164.35Y-114.19
X119.75Y-114.19
X129.35Y-114.19
X383.05Y-114.19
X392.65Y-114.19
X348.05Y-114.19
X357.65Y-114.19
X189.75Y-114.19
X199.35Y-114.19
X84.75Y-44.19
X94.35Y-44.19
X34.75Y-114.19
X44.35Y-114.19
X34.75Y-44.19
X44.35Y-44.19
X383.05Y-44.19
X392.65Y-44.19
X313.05Y-44.19
X322.65Y-44.19
X348.05Y-79.19
X357.65Y-79.19
X239.75Y-61.69
X249.35Y-61.69
X85.925Y-79.19
X95.525Y-79.19
T6
G00X63.95Y-114.19
M15
G01X65.15Y-114.19
M16
G05
G00X63.95Y-116.79
M15
G01X65.15Y-116.79
M16
G05
G00X268.95Y-96.69
M15
G01X270.15Y-96.69
M16
G05
G00X268.95Y-99.29
M15
G01X270.15Y-99.29
M16
G05
G00X218.95Y-114.19
M15
G01X220.15Y-114.19
M16
G05
G00X218.95Y-116.79
M15
G01X220.15Y-116.79
M16
G05
G00X218.95Y-67.523
M15
G01X220.15Y-67.523
M16
G05
G00X218.95Y-70.123
M15
G01X220.15Y-70.123
M16
G05
G00X292.25Y-79.29
M15
G01X293.45Y-79.29
M16
G05
G00X292.25Y-81.89
M15
G01X293.45Y-81.89
M16
G05
G00X420.95Y-114.09
M15
G01X422.15Y-114.09
M16
G05
G00X420.95Y-116.69
M15
G01X422.15Y-116.69
M16
G05
G00X218.95Y-90.857
M15
G01X220.15Y-90.857
M16
G05
G00X218.95Y-93.457
M15
G01X220.15Y-93.457
M16
G05
G00X292.25Y-61.79
M15
G01X293.45Y-61.79
M16
G05
G00X292.25Y-64.39
M15
G01X293.45Y-64.39
M16
G05
G00X63.95Y-61.69
M15
G01X65.15Y-61.69
M16
G05
G00X63.95Y-64.29
M15
G01X65.15Y-64.29
M16
G05
G00X292.25Y-44.29
M15
G01X293.45Y-44.29
M16
G05
G00X292.25Y-46.89
M15
G01X293.45Y-46.89
M16
G05
G00X218.95Y-44.19
M15
G01X220.15Y-44.19
M16
G05
G00X218.95Y-46.79
M15
G01X220.15Y-46.79
M16
G05
T0
M30
