%TF.GenerationSoftware,KiCad,Pcbnew,(5.1.7-0-10_14)*%
%TF.CreationDate,2020-11-07T09:55:29-03:00*%
%TF.ProjectId,MiniMood (tht),4d696e69-4d6f-46f6-9420-28746874292e,1*%
%TF.SameCoordinates,Original*%
%TF.FileFunction,Paste,Bot*%
%TF.FilePolarity,Positive*%
%FSLAX46Y46*%
G04 Gerber Fmt 4.6, Leading zero omitted, Abs format (unit mm)*
G04 Created by KiCad (PCBNEW (5.1.7-0-10_14)) date 2020-11-07 09:55:29*
%MOMM*%
%LPD*%
G01*
G04 APERTURE LIST*
G04 APERTURE END LIST*
%TO.C,4067_1*%
G36*
G01*
X139175000Y-61805000D02*
X139175000Y-62105000D01*
G75*
G02*
X139025000Y-62255000I-150000J0D01*
G01*
X137275000Y-62255000D01*
G75*
G02*
X137125000Y-62105000I0J150000D01*
G01*
X137125000Y-61805000D01*
G75*
G02*
X137275000Y-61655000I150000J0D01*
G01*
X139025000Y-61655000D01*
G75*
G02*
X139175000Y-61805000I0J-150000D01*
G01*
G37*
G36*
G01*
X139175000Y-63075000D02*
X139175000Y-63375000D01*
G75*
G02*
X139025000Y-63525000I-150000J0D01*
G01*
X137275000Y-63525000D01*
G75*
G02*
X137125000Y-63375000I0J150000D01*
G01*
X137125000Y-63075000D01*
G75*
G02*
X137275000Y-62925000I150000J0D01*
G01*
X139025000Y-62925000D01*
G75*
G02*
X139175000Y-63075000I0J-150000D01*
G01*
G37*
G36*
G01*
X139175000Y-64345000D02*
X139175000Y-64645000D01*
G75*
G02*
X139025000Y-64795000I-150000J0D01*
G01*
X137275000Y-64795000D01*
G75*
G02*
X137125000Y-64645000I0J150000D01*
G01*
X137125000Y-64345000D01*
G75*
G02*
X137275000Y-64195000I150000J0D01*
G01*
X139025000Y-64195000D01*
G75*
G02*
X139175000Y-64345000I0J-150000D01*
G01*
G37*
G36*
G01*
X139175000Y-65615000D02*
X139175000Y-65915000D01*
G75*
G02*
X139025000Y-66065000I-150000J0D01*
G01*
X137275000Y-66065000D01*
G75*
G02*
X137125000Y-65915000I0J150000D01*
G01*
X137125000Y-65615000D01*
G75*
G02*
X137275000Y-65465000I150000J0D01*
G01*
X139025000Y-65465000D01*
G75*
G02*
X139175000Y-65615000I0J-150000D01*
G01*
G37*
G36*
G01*
X139175000Y-66885000D02*
X139175000Y-67185000D01*
G75*
G02*
X139025000Y-67335000I-150000J0D01*
G01*
X137275000Y-67335000D01*
G75*
G02*
X137125000Y-67185000I0J150000D01*
G01*
X137125000Y-66885000D01*
G75*
G02*
X137275000Y-66735000I150000J0D01*
G01*
X139025000Y-66735000D01*
G75*
G02*
X139175000Y-66885000I0J-150000D01*
G01*
G37*
G36*
G01*
X139175000Y-68155000D02*
X139175000Y-68455000D01*
G75*
G02*
X139025000Y-68605000I-150000J0D01*
G01*
X137275000Y-68605000D01*
G75*
G02*
X137125000Y-68455000I0J150000D01*
G01*
X137125000Y-68155000D01*
G75*
G02*
X137275000Y-68005000I150000J0D01*
G01*
X139025000Y-68005000D01*
G75*
G02*
X139175000Y-68155000I0J-150000D01*
G01*
G37*
G36*
G01*
X139175000Y-69425000D02*
X139175000Y-69725000D01*
G75*
G02*
X139025000Y-69875000I-150000J0D01*
G01*
X137275000Y-69875000D01*
G75*
G02*
X137125000Y-69725000I0J150000D01*
G01*
X137125000Y-69425000D01*
G75*
G02*
X137275000Y-69275000I150000J0D01*
G01*
X139025000Y-69275000D01*
G75*
G02*
X139175000Y-69425000I0J-150000D01*
G01*
G37*
G36*
G01*
X139175000Y-70695000D02*
X139175000Y-70995000D01*
G75*
G02*
X139025000Y-71145000I-150000J0D01*
G01*
X137275000Y-71145000D01*
G75*
G02*
X137125000Y-70995000I0J150000D01*
G01*
X137125000Y-70695000D01*
G75*
G02*
X137275000Y-70545000I150000J0D01*
G01*
X139025000Y-70545000D01*
G75*
G02*
X139175000Y-70695000I0J-150000D01*
G01*
G37*
G36*
G01*
X139175000Y-71965000D02*
X139175000Y-72265000D01*
G75*
G02*
X139025000Y-72415000I-150000J0D01*
G01*
X137275000Y-72415000D01*
G75*
G02*
X137125000Y-72265000I0J150000D01*
G01*
X137125000Y-71965000D01*
G75*
G02*
X137275000Y-71815000I150000J0D01*
G01*
X139025000Y-71815000D01*
G75*
G02*
X139175000Y-71965000I0J-150000D01*
G01*
G37*
G36*
G01*
X139175000Y-73235000D02*
X139175000Y-73535000D01*
G75*
G02*
X139025000Y-73685000I-150000J0D01*
G01*
X137275000Y-73685000D01*
G75*
G02*
X137125000Y-73535000I0J150000D01*
G01*
X137125000Y-73235000D01*
G75*
G02*
X137275000Y-73085000I150000J0D01*
G01*
X139025000Y-73085000D01*
G75*
G02*
X139175000Y-73235000I0J-150000D01*
G01*
G37*
G36*
G01*
X139175000Y-74505000D02*
X139175000Y-74805000D01*
G75*
G02*
X139025000Y-74955000I-150000J0D01*
G01*
X137275000Y-74955000D01*
G75*
G02*
X137125000Y-74805000I0J150000D01*
G01*
X137125000Y-74505000D01*
G75*
G02*
X137275000Y-74355000I150000J0D01*
G01*
X139025000Y-74355000D01*
G75*
G02*
X139175000Y-74505000I0J-150000D01*
G01*
G37*
G36*
G01*
X139175000Y-75775000D02*
X139175000Y-76075000D01*
G75*
G02*
X139025000Y-76225000I-150000J0D01*
G01*
X137275000Y-76225000D01*
G75*
G02*
X137125000Y-76075000I0J150000D01*
G01*
X137125000Y-75775000D01*
G75*
G02*
X137275000Y-75625000I150000J0D01*
G01*
X139025000Y-75625000D01*
G75*
G02*
X139175000Y-75775000I0J-150000D01*
G01*
G37*
G36*
G01*
X148475000Y-75775000D02*
X148475000Y-76075000D01*
G75*
G02*
X148325000Y-76225000I-150000J0D01*
G01*
X146575000Y-76225000D01*
G75*
G02*
X146425000Y-76075000I0J150000D01*
G01*
X146425000Y-75775000D01*
G75*
G02*
X146575000Y-75625000I150000J0D01*
G01*
X148325000Y-75625000D01*
G75*
G02*
X148475000Y-75775000I0J-150000D01*
G01*
G37*
G36*
G01*
X148475000Y-74505000D02*
X148475000Y-74805000D01*
G75*
G02*
X148325000Y-74955000I-150000J0D01*
G01*
X146575000Y-74955000D01*
G75*
G02*
X146425000Y-74805000I0J150000D01*
G01*
X146425000Y-74505000D01*
G75*
G02*
X146575000Y-74355000I150000J0D01*
G01*
X148325000Y-74355000D01*
G75*
G02*
X148475000Y-74505000I0J-150000D01*
G01*
G37*
G36*
G01*
X148475000Y-73235000D02*
X148475000Y-73535000D01*
G75*
G02*
X148325000Y-73685000I-150000J0D01*
G01*
X146575000Y-73685000D01*
G75*
G02*
X146425000Y-73535000I0J150000D01*
G01*
X146425000Y-73235000D01*
G75*
G02*
X146575000Y-73085000I150000J0D01*
G01*
X148325000Y-73085000D01*
G75*
G02*
X148475000Y-73235000I0J-150000D01*
G01*
G37*
G36*
G01*
X148475000Y-71965000D02*
X148475000Y-72265000D01*
G75*
G02*
X148325000Y-72415000I-150000J0D01*
G01*
X146575000Y-72415000D01*
G75*
G02*
X146425000Y-72265000I0J150000D01*
G01*
X146425000Y-71965000D01*
G75*
G02*
X146575000Y-71815000I150000J0D01*
G01*
X148325000Y-71815000D01*
G75*
G02*
X148475000Y-71965000I0J-150000D01*
G01*
G37*
G36*
G01*
X148475000Y-70695000D02*
X148475000Y-70995000D01*
G75*
G02*
X148325000Y-71145000I-150000J0D01*
G01*
X146575000Y-71145000D01*
G75*
G02*
X146425000Y-70995000I0J150000D01*
G01*
X146425000Y-70695000D01*
G75*
G02*
X146575000Y-70545000I150000J0D01*
G01*
X148325000Y-70545000D01*
G75*
G02*
X148475000Y-70695000I0J-150000D01*
G01*
G37*
G36*
G01*
X148475000Y-69425000D02*
X148475000Y-69725000D01*
G75*
G02*
X148325000Y-69875000I-150000J0D01*
G01*
X146575000Y-69875000D01*
G75*
G02*
X146425000Y-69725000I0J150000D01*
G01*
X146425000Y-69425000D01*
G75*
G02*
X146575000Y-69275000I150000J0D01*
G01*
X148325000Y-69275000D01*
G75*
G02*
X148475000Y-69425000I0J-150000D01*
G01*
G37*
G36*
G01*
X148475000Y-68155000D02*
X148475000Y-68455000D01*
G75*
G02*
X148325000Y-68605000I-150000J0D01*
G01*
X146575000Y-68605000D01*
G75*
G02*
X146425000Y-68455000I0J150000D01*
G01*
X146425000Y-68155000D01*
G75*
G02*
X146575000Y-68005000I150000J0D01*
G01*
X148325000Y-68005000D01*
G75*
G02*
X148475000Y-68155000I0J-150000D01*
G01*
G37*
G36*
G01*
X148475000Y-66885000D02*
X148475000Y-67185000D01*
G75*
G02*
X148325000Y-67335000I-150000J0D01*
G01*
X146575000Y-67335000D01*
G75*
G02*
X146425000Y-67185000I0J150000D01*
G01*
X146425000Y-66885000D01*
G75*
G02*
X146575000Y-66735000I150000J0D01*
G01*
X148325000Y-66735000D01*
G75*
G02*
X148475000Y-66885000I0J-150000D01*
G01*
G37*
G36*
G01*
X148475000Y-65615000D02*
X148475000Y-65915000D01*
G75*
G02*
X148325000Y-66065000I-150000J0D01*
G01*
X146575000Y-66065000D01*
G75*
G02*
X146425000Y-65915000I0J150000D01*
G01*
X146425000Y-65615000D01*
G75*
G02*
X146575000Y-65465000I150000J0D01*
G01*
X148325000Y-65465000D01*
G75*
G02*
X148475000Y-65615000I0J-150000D01*
G01*
G37*
G36*
G01*
X148475000Y-64345000D02*
X148475000Y-64645000D01*
G75*
G02*
X148325000Y-64795000I-150000J0D01*
G01*
X146575000Y-64795000D01*
G75*
G02*
X146425000Y-64645000I0J150000D01*
G01*
X146425000Y-64345000D01*
G75*
G02*
X146575000Y-64195000I150000J0D01*
G01*
X148325000Y-64195000D01*
G75*
G02*
X148475000Y-64345000I0J-150000D01*
G01*
G37*
G36*
G01*
X148475000Y-63075000D02*
X148475000Y-63375000D01*
G75*
G02*
X148325000Y-63525000I-150000J0D01*
G01*
X146575000Y-63525000D01*
G75*
G02*
X146425000Y-63375000I0J150000D01*
G01*
X146425000Y-63075000D01*
G75*
G02*
X146575000Y-62925000I150000J0D01*
G01*
X148325000Y-62925000D01*
G75*
G02*
X148475000Y-63075000I0J-150000D01*
G01*
G37*
G36*
G01*
X148475000Y-61805000D02*
X148475000Y-62105000D01*
G75*
G02*
X148325000Y-62255000I-150000J0D01*
G01*
X146575000Y-62255000D01*
G75*
G02*
X146425000Y-62105000I0J150000D01*
G01*
X146425000Y-61805000D01*
G75*
G02*
X146575000Y-61655000I150000J0D01*
G01*
X148325000Y-61655000D01*
G75*
G02*
X148475000Y-61805000I0J-150000D01*
G01*
G37*
%TD*%
%TO.C,4067_2*%
G36*
G01*
X266425000Y-66305000D02*
X266425000Y-66605000D01*
G75*
G02*
X266275000Y-66755000I-150000J0D01*
G01*
X264525000Y-66755000D01*
G75*
G02*
X264375000Y-66605000I0J150000D01*
G01*
X264375000Y-66305000D01*
G75*
G02*
X264525000Y-66155000I150000J0D01*
G01*
X266275000Y-66155000D01*
G75*
G02*
X266425000Y-66305000I0J-150000D01*
G01*
G37*
G36*
G01*
X266425000Y-67575000D02*
X266425000Y-67875000D01*
G75*
G02*
X266275000Y-68025000I-150000J0D01*
G01*
X264525000Y-68025000D01*
G75*
G02*
X264375000Y-67875000I0J150000D01*
G01*
X264375000Y-67575000D01*
G75*
G02*
X264525000Y-67425000I150000J0D01*
G01*
X266275000Y-67425000D01*
G75*
G02*
X266425000Y-67575000I0J-150000D01*
G01*
G37*
G36*
G01*
X266425000Y-68845000D02*
X266425000Y-69145000D01*
G75*
G02*
X266275000Y-69295000I-150000J0D01*
G01*
X264525000Y-69295000D01*
G75*
G02*
X264375000Y-69145000I0J150000D01*
G01*
X264375000Y-68845000D01*
G75*
G02*
X264525000Y-68695000I150000J0D01*
G01*
X266275000Y-68695000D01*
G75*
G02*
X266425000Y-68845000I0J-150000D01*
G01*
G37*
G36*
G01*
X266425000Y-70115000D02*
X266425000Y-70415000D01*
G75*
G02*
X266275000Y-70565000I-150000J0D01*
G01*
X264525000Y-70565000D01*
G75*
G02*
X264375000Y-70415000I0J150000D01*
G01*
X264375000Y-70115000D01*
G75*
G02*
X264525000Y-69965000I150000J0D01*
G01*
X266275000Y-69965000D01*
G75*
G02*
X266425000Y-70115000I0J-150000D01*
G01*
G37*
G36*
G01*
X266425000Y-71385000D02*
X266425000Y-71685000D01*
G75*
G02*
X266275000Y-71835000I-150000J0D01*
G01*
X264525000Y-71835000D01*
G75*
G02*
X264375000Y-71685000I0J150000D01*
G01*
X264375000Y-71385000D01*
G75*
G02*
X264525000Y-71235000I150000J0D01*
G01*
X266275000Y-71235000D01*
G75*
G02*
X266425000Y-71385000I0J-150000D01*
G01*
G37*
G36*
G01*
X266425000Y-72655000D02*
X266425000Y-72955000D01*
G75*
G02*
X266275000Y-73105000I-150000J0D01*
G01*
X264525000Y-73105000D01*
G75*
G02*
X264375000Y-72955000I0J150000D01*
G01*
X264375000Y-72655000D01*
G75*
G02*
X264525000Y-72505000I150000J0D01*
G01*
X266275000Y-72505000D01*
G75*
G02*
X266425000Y-72655000I0J-150000D01*
G01*
G37*
G36*
G01*
X266425000Y-73925000D02*
X266425000Y-74225000D01*
G75*
G02*
X266275000Y-74375000I-150000J0D01*
G01*
X264525000Y-74375000D01*
G75*
G02*
X264375000Y-74225000I0J150000D01*
G01*
X264375000Y-73925000D01*
G75*
G02*
X264525000Y-73775000I150000J0D01*
G01*
X266275000Y-73775000D01*
G75*
G02*
X266425000Y-73925000I0J-150000D01*
G01*
G37*
G36*
G01*
X266425000Y-75195000D02*
X266425000Y-75495000D01*
G75*
G02*
X266275000Y-75645000I-150000J0D01*
G01*
X264525000Y-75645000D01*
G75*
G02*
X264375000Y-75495000I0J150000D01*
G01*
X264375000Y-75195000D01*
G75*
G02*
X264525000Y-75045000I150000J0D01*
G01*
X266275000Y-75045000D01*
G75*
G02*
X266425000Y-75195000I0J-150000D01*
G01*
G37*
G36*
G01*
X266425000Y-76465000D02*
X266425000Y-76765000D01*
G75*
G02*
X266275000Y-76915000I-150000J0D01*
G01*
X264525000Y-76915000D01*
G75*
G02*
X264375000Y-76765000I0J150000D01*
G01*
X264375000Y-76465000D01*
G75*
G02*
X264525000Y-76315000I150000J0D01*
G01*
X266275000Y-76315000D01*
G75*
G02*
X266425000Y-76465000I0J-150000D01*
G01*
G37*
G36*
G01*
X266425000Y-77735000D02*
X266425000Y-78035000D01*
G75*
G02*
X266275000Y-78185000I-150000J0D01*
G01*
X264525000Y-78185000D01*
G75*
G02*
X264375000Y-78035000I0J150000D01*
G01*
X264375000Y-77735000D01*
G75*
G02*
X264525000Y-77585000I150000J0D01*
G01*
X266275000Y-77585000D01*
G75*
G02*
X266425000Y-77735000I0J-150000D01*
G01*
G37*
G36*
G01*
X266425000Y-79005000D02*
X266425000Y-79305000D01*
G75*
G02*
X266275000Y-79455000I-150000J0D01*
G01*
X264525000Y-79455000D01*
G75*
G02*
X264375000Y-79305000I0J150000D01*
G01*
X264375000Y-79005000D01*
G75*
G02*
X264525000Y-78855000I150000J0D01*
G01*
X266275000Y-78855000D01*
G75*
G02*
X266425000Y-79005000I0J-150000D01*
G01*
G37*
G36*
G01*
X266425000Y-80275000D02*
X266425000Y-80575000D01*
G75*
G02*
X266275000Y-80725000I-150000J0D01*
G01*
X264525000Y-80725000D01*
G75*
G02*
X264375000Y-80575000I0J150000D01*
G01*
X264375000Y-80275000D01*
G75*
G02*
X264525000Y-80125000I150000J0D01*
G01*
X266275000Y-80125000D01*
G75*
G02*
X266425000Y-80275000I0J-150000D01*
G01*
G37*
G36*
G01*
X275725000Y-80275000D02*
X275725000Y-80575000D01*
G75*
G02*
X275575000Y-80725000I-150000J0D01*
G01*
X273825000Y-80725000D01*
G75*
G02*
X273675000Y-80575000I0J150000D01*
G01*
X273675000Y-80275000D01*
G75*
G02*
X273825000Y-80125000I150000J0D01*
G01*
X275575000Y-80125000D01*
G75*
G02*
X275725000Y-80275000I0J-150000D01*
G01*
G37*
G36*
G01*
X275725000Y-79005000D02*
X275725000Y-79305000D01*
G75*
G02*
X275575000Y-79455000I-150000J0D01*
G01*
X273825000Y-79455000D01*
G75*
G02*
X273675000Y-79305000I0J150000D01*
G01*
X273675000Y-79005000D01*
G75*
G02*
X273825000Y-78855000I150000J0D01*
G01*
X275575000Y-78855000D01*
G75*
G02*
X275725000Y-79005000I0J-150000D01*
G01*
G37*
G36*
G01*
X275725000Y-77735000D02*
X275725000Y-78035000D01*
G75*
G02*
X275575000Y-78185000I-150000J0D01*
G01*
X273825000Y-78185000D01*
G75*
G02*
X273675000Y-78035000I0J150000D01*
G01*
X273675000Y-77735000D01*
G75*
G02*
X273825000Y-77585000I150000J0D01*
G01*
X275575000Y-77585000D01*
G75*
G02*
X275725000Y-77735000I0J-150000D01*
G01*
G37*
G36*
G01*
X275725000Y-76465000D02*
X275725000Y-76765000D01*
G75*
G02*
X275575000Y-76915000I-150000J0D01*
G01*
X273825000Y-76915000D01*
G75*
G02*
X273675000Y-76765000I0J150000D01*
G01*
X273675000Y-76465000D01*
G75*
G02*
X273825000Y-76315000I150000J0D01*
G01*
X275575000Y-76315000D01*
G75*
G02*
X275725000Y-76465000I0J-150000D01*
G01*
G37*
G36*
G01*
X275725000Y-75195000D02*
X275725000Y-75495000D01*
G75*
G02*
X275575000Y-75645000I-150000J0D01*
G01*
X273825000Y-75645000D01*
G75*
G02*
X273675000Y-75495000I0J150000D01*
G01*
X273675000Y-75195000D01*
G75*
G02*
X273825000Y-75045000I150000J0D01*
G01*
X275575000Y-75045000D01*
G75*
G02*
X275725000Y-75195000I0J-150000D01*
G01*
G37*
G36*
G01*
X275725000Y-73925000D02*
X275725000Y-74225000D01*
G75*
G02*
X275575000Y-74375000I-150000J0D01*
G01*
X273825000Y-74375000D01*
G75*
G02*
X273675000Y-74225000I0J150000D01*
G01*
X273675000Y-73925000D01*
G75*
G02*
X273825000Y-73775000I150000J0D01*
G01*
X275575000Y-73775000D01*
G75*
G02*
X275725000Y-73925000I0J-150000D01*
G01*
G37*
G36*
G01*
X275725000Y-72655000D02*
X275725000Y-72955000D01*
G75*
G02*
X275575000Y-73105000I-150000J0D01*
G01*
X273825000Y-73105000D01*
G75*
G02*
X273675000Y-72955000I0J150000D01*
G01*
X273675000Y-72655000D01*
G75*
G02*
X273825000Y-72505000I150000J0D01*
G01*
X275575000Y-72505000D01*
G75*
G02*
X275725000Y-72655000I0J-150000D01*
G01*
G37*
G36*
G01*
X275725000Y-71385000D02*
X275725000Y-71685000D01*
G75*
G02*
X275575000Y-71835000I-150000J0D01*
G01*
X273825000Y-71835000D01*
G75*
G02*
X273675000Y-71685000I0J150000D01*
G01*
X273675000Y-71385000D01*
G75*
G02*
X273825000Y-71235000I150000J0D01*
G01*
X275575000Y-71235000D01*
G75*
G02*
X275725000Y-71385000I0J-150000D01*
G01*
G37*
G36*
G01*
X275725000Y-70115000D02*
X275725000Y-70415000D01*
G75*
G02*
X275575000Y-70565000I-150000J0D01*
G01*
X273825000Y-70565000D01*
G75*
G02*
X273675000Y-70415000I0J150000D01*
G01*
X273675000Y-70115000D01*
G75*
G02*
X273825000Y-69965000I150000J0D01*
G01*
X275575000Y-69965000D01*
G75*
G02*
X275725000Y-70115000I0J-150000D01*
G01*
G37*
G36*
G01*
X275725000Y-68845000D02*
X275725000Y-69145000D01*
G75*
G02*
X275575000Y-69295000I-150000J0D01*
G01*
X273825000Y-69295000D01*
G75*
G02*
X273675000Y-69145000I0J150000D01*
G01*
X273675000Y-68845000D01*
G75*
G02*
X273825000Y-68695000I150000J0D01*
G01*
X275575000Y-68695000D01*
G75*
G02*
X275725000Y-68845000I0J-150000D01*
G01*
G37*
G36*
G01*
X275725000Y-67575000D02*
X275725000Y-67875000D01*
G75*
G02*
X275575000Y-68025000I-150000J0D01*
G01*
X273825000Y-68025000D01*
G75*
G02*
X273675000Y-67875000I0J150000D01*
G01*
X273675000Y-67575000D01*
G75*
G02*
X273825000Y-67425000I150000J0D01*
G01*
X275575000Y-67425000D01*
G75*
G02*
X275725000Y-67575000I0J-150000D01*
G01*
G37*
G36*
G01*
X275725000Y-66305000D02*
X275725000Y-66605000D01*
G75*
G02*
X275575000Y-66755000I-150000J0D01*
G01*
X273825000Y-66755000D01*
G75*
G02*
X273675000Y-66605000I0J150000D01*
G01*
X273675000Y-66305000D01*
G75*
G02*
X273825000Y-66155000I150000J0D01*
G01*
X275575000Y-66155000D01*
G75*
G02*
X275725000Y-66305000I0J-150000D01*
G01*
G37*
%TD*%
M02*
