%TF.GenerationSoftware,KiCad,Pcbnew,(5.1.7-0-10_14)*%
%TF.CreationDate,2020-11-05T11:53:55-03:00*%
%TF.ProjectId,MiniMood,4d696e69-4d6f-46f6-942e-6b696361645f,1*%
%TF.SameCoordinates,Original*%
%TF.FileFunction,Soldermask,Bot*%
%TF.FilePolarity,Negative*%
%FSLAX46Y46*%
G04 Gerber Fmt 4.6, Leading zero omitted, Abs format (unit mm)*
G04 Created by KiCad (PCBNEW (5.1.7-0-10_14)) date 2020-11-05 11:53:55*
%MOMM*%
%LPD*%
G01*
G04 APERTURE LIST*
%ADD10O,3.300000X2.000000*%
%ADD11C,1.600000*%
%ADD12R,1.600000X1.600000*%
%ADD13R,1.800000X1.800000*%
%ADD14C,1.800000*%
%ADD15C,3.240000*%
%ADD16C,3.200000*%
%ADD17C,9.000000*%
%ADD18O,1.700000X1.700000*%
%ADD19R,1.700000X1.700000*%
%ADD20C,1.400000*%
%ADD21O,1.400000X1.400000*%
G04 APERTURE END LIST*
D10*
%TO.C,SW2*%
X64550000Y-116790000D03*
X64550000Y-114190000D03*
%TD*%
%TO.C,SW1*%
X64550000Y-64290000D03*
X64550000Y-61690000D03*
%TD*%
%TO.C,SW3*%
X219550000Y-46790000D03*
X219550000Y-44190000D03*
%TD*%
%TO.C,SW4*%
X219550000Y-70123333D03*
X219550000Y-67523333D03*
%TD*%
%TO.C,SW5*%
X219550000Y-93456666D03*
X219550000Y-90856666D03*
%TD*%
%TO.C,SW6*%
X219550000Y-116790000D03*
X219550000Y-114190000D03*
%TD*%
%TO.C,SW7*%
X269550000Y-99290000D03*
X269550000Y-96690000D03*
%TD*%
%TO.C,SW8*%
X292850000Y-46890000D03*
X292850000Y-44290000D03*
%TD*%
%TO.C,SW9*%
X292850000Y-64390000D03*
X292850000Y-61790000D03*
%TD*%
%TO.C,SW10*%
X292850000Y-81890000D03*
X292850000Y-79290000D03*
%TD*%
%TO.C,SW11*%
X421550000Y-116690000D03*
X421550000Y-114090000D03*
%TD*%
D11*
%TO.C,U3*%
X117930000Y-21430000D03*
X117930000Y-23970000D03*
X117930000Y-26510000D03*
X117930000Y-29050000D03*
X117930000Y-31590000D03*
X117930000Y-34130000D03*
X117930000Y-36670000D03*
X117930000Y-39210000D03*
X117930000Y-41750000D03*
X117930000Y-44290000D03*
X117930000Y-46830000D03*
X117930000Y-49370000D03*
X133170000Y-49370000D03*
X133170000Y-46830000D03*
X133170000Y-44290000D03*
X133170000Y-41750000D03*
X133170000Y-39210000D03*
X133170000Y-36670000D03*
X133170000Y-34130000D03*
X133170000Y-31590000D03*
X133170000Y-29050000D03*
X133170000Y-26510000D03*
X133170000Y-23970000D03*
D12*
X133170000Y-21430000D03*
%TD*%
D13*
%TO.C,pot1*%
X37050000Y-51690000D03*
D14*
X39550000Y-51690000D03*
X42050000Y-51690000D03*
D15*
X44350000Y-44190000D03*
X34750000Y-44190000D03*
%TD*%
D13*
%TO.C,pot3*%
X37050000Y-121690000D03*
D14*
X39550000Y-121690000D03*
X42050000Y-121690000D03*
D15*
X44350000Y-114190000D03*
X34750000Y-114190000D03*
%TD*%
D13*
%TO.C,pot2*%
X37050000Y-86690000D03*
D14*
X39550000Y-86690000D03*
X42050000Y-86690000D03*
D15*
X44350000Y-79190000D03*
X34750000Y-79190000D03*
%TD*%
D13*
%TO.C,pot4*%
X87050000Y-51690000D03*
D14*
X89550000Y-51690000D03*
X92050000Y-51690000D03*
D15*
X94350000Y-44190000D03*
X84750000Y-44190000D03*
%TD*%
D13*
%TO.C,pot5*%
X88225001Y-86690000D03*
D14*
X90725001Y-86690000D03*
X93225001Y-86690000D03*
D15*
X95525001Y-79190000D03*
X85925001Y-79190000D03*
%TD*%
D13*
%TO.C,pot6*%
X87050000Y-121690000D03*
D14*
X89550000Y-121690000D03*
X92050000Y-121690000D03*
D15*
X94350000Y-114190000D03*
X84750000Y-114190000D03*
%TD*%
D13*
%TO.C,pot7*%
X122050000Y-86690000D03*
D14*
X124550000Y-86690000D03*
X127050000Y-86690000D03*
D15*
X129350000Y-79190000D03*
X119750000Y-79190000D03*
%TD*%
D13*
%TO.C,pot8*%
X122050000Y-121690000D03*
D14*
X124550000Y-121690000D03*
X127050000Y-121690000D03*
D15*
X129350000Y-114190000D03*
X119750000Y-114190000D03*
%TD*%
D13*
%TO.C,pot9*%
X157050000Y-51690000D03*
D14*
X159550000Y-51690000D03*
X162050000Y-51690000D03*
D15*
X164350000Y-44190000D03*
X154750000Y-44190000D03*
%TD*%
D13*
%TO.C,pot10*%
X157050000Y-86690000D03*
D14*
X159550000Y-86690000D03*
X162050000Y-86690000D03*
D15*
X164350000Y-79190000D03*
X154750000Y-79190000D03*
%TD*%
D13*
%TO.C,pot11*%
X157050000Y-121690000D03*
D14*
X159550000Y-121690000D03*
X162050000Y-121690000D03*
D15*
X164350000Y-114190000D03*
X154750000Y-114190000D03*
%TD*%
D13*
%TO.C,pot12*%
X192050000Y-51690000D03*
D14*
X194550000Y-51690000D03*
X197050000Y-51690000D03*
D15*
X199350000Y-44190000D03*
X189750000Y-44190000D03*
%TD*%
D13*
%TO.C,pot13*%
X192050000Y-86690000D03*
D14*
X194550000Y-86690000D03*
X197050000Y-86690000D03*
D15*
X199350000Y-79190000D03*
X189750000Y-79190000D03*
%TD*%
D13*
%TO.C,pot14*%
X192050000Y-121690000D03*
D14*
X194550000Y-121690000D03*
X197050000Y-121690000D03*
D15*
X199350000Y-114190000D03*
X189750000Y-114190000D03*
%TD*%
D13*
%TO.C,pot15*%
X242050000Y-69190000D03*
D14*
X244550000Y-69190000D03*
X247050000Y-69190000D03*
D15*
X249350000Y-61690000D03*
X239750000Y-61690000D03*
%TD*%
D13*
%TO.C,pot16*%
X242050000Y-104190000D03*
D14*
X244550000Y-104190000D03*
X247050000Y-104190000D03*
D15*
X249350000Y-96690000D03*
X239750000Y-96690000D03*
%TD*%
D13*
%TO.C,pot17*%
X315350000Y-51690000D03*
D14*
X317850000Y-51690000D03*
X320350000Y-51690000D03*
D15*
X322650000Y-44190000D03*
X313050000Y-44190000D03*
%TD*%
D13*
%TO.C,pot18*%
X315350000Y-86690000D03*
D14*
X317850000Y-86690000D03*
X320350000Y-86690000D03*
D15*
X322650000Y-79190000D03*
X313050000Y-79190000D03*
%TD*%
D13*
%TO.C,pot19*%
X315350000Y-121690000D03*
D14*
X317850000Y-121690000D03*
X320350000Y-121690000D03*
D15*
X322650000Y-114190000D03*
X313050000Y-114190000D03*
%TD*%
D13*
%TO.C,pot20*%
X350350000Y-51690000D03*
D14*
X352850000Y-51690000D03*
X355350000Y-51690000D03*
D15*
X357650000Y-44190000D03*
X348050000Y-44190000D03*
%TD*%
D13*
%TO.C,pot21*%
X350350000Y-86690000D03*
D14*
X352850000Y-86690000D03*
X355350000Y-86690000D03*
D15*
X357650000Y-79190000D03*
X348050000Y-79190000D03*
%TD*%
D13*
%TO.C,pot22*%
X350350000Y-121690000D03*
D14*
X352850000Y-121690000D03*
X355350000Y-121690000D03*
D15*
X357650000Y-114190000D03*
X348050000Y-114190000D03*
%TD*%
D13*
%TO.C,pot23*%
X385350000Y-51690000D03*
D14*
X387850000Y-51690000D03*
X390350000Y-51690000D03*
D15*
X392650000Y-44190000D03*
X383050000Y-44190000D03*
%TD*%
D13*
%TO.C,pot24*%
X385350000Y-86690000D03*
D14*
X387850000Y-86690000D03*
X390350000Y-86690000D03*
D15*
X392650000Y-79190000D03*
X383050000Y-79190000D03*
%TD*%
D13*
%TO.C,pot25*%
X385350000Y-121690000D03*
D14*
X387850000Y-121690000D03*
X390350000Y-121690000D03*
D15*
X392650000Y-114190000D03*
X383050000Y-114190000D03*
%TD*%
D13*
%TO.C,pot26*%
X420350000Y-51690000D03*
D14*
X422850000Y-51690000D03*
X425350000Y-51690000D03*
D15*
X427650000Y-44190000D03*
X418050000Y-44190000D03*
%TD*%
D16*
%TO.C,REF\u002A\u002A*%
X231200000Y-24000000D03*
%TD*%
%TO.C,REF\u002A\u002A*%
X231200000Y-134190000D03*
%TD*%
%TO.C,REF\u002A\u002A*%
X438420000Y-134190000D03*
%TD*%
%TO.C,REF\u002A\u002A*%
X23990000Y-134190000D03*
%TD*%
%TO.C,REF\u002A\u002A*%
X23990000Y-24000000D03*
%TD*%
%TO.C,REF\u002A\u002A*%
X438420000Y-24000000D03*
%TD*%
D17*
%TO.C,REF\u002A\u002A*%
X231200000Y-79090000D03*
%TD*%
%TO.C,C1*%
G36*
G01*
X262410000Y-65970000D02*
X262910000Y-65970000D01*
G75*
G02*
X263135000Y-66195000I0J-225000D01*
G01*
X263135000Y-66645000D01*
G75*
G02*
X262910000Y-66870000I-225000J0D01*
G01*
X262410000Y-66870000D01*
G75*
G02*
X262185000Y-66645000I0J225000D01*
G01*
X262185000Y-66195000D01*
G75*
G02*
X262410000Y-65970000I225000J0D01*
G01*
G37*
G36*
G01*
X262410000Y-64420000D02*
X262910000Y-64420000D01*
G75*
G02*
X263135000Y-64645000I0J-225000D01*
G01*
X263135000Y-65095000D01*
G75*
G02*
X262910000Y-65320000I-225000J0D01*
G01*
X262410000Y-65320000D01*
G75*
G02*
X262185000Y-65095000I0J225000D01*
G01*
X262185000Y-64645000D01*
G75*
G02*
X262410000Y-64420000I225000J0D01*
G01*
G37*
%TD*%
%TO.C,C2*%
G36*
G01*
X134730000Y-61470000D02*
X135230000Y-61470000D01*
G75*
G02*
X135455000Y-61695000I0J-225000D01*
G01*
X135455000Y-62145000D01*
G75*
G02*
X135230000Y-62370000I-225000J0D01*
G01*
X134730000Y-62370000D01*
G75*
G02*
X134505000Y-62145000I0J225000D01*
G01*
X134505000Y-61695000D01*
G75*
G02*
X134730000Y-61470000I225000J0D01*
G01*
G37*
G36*
G01*
X134730000Y-59920000D02*
X135230000Y-59920000D01*
G75*
G02*
X135455000Y-60145000I0J-225000D01*
G01*
X135455000Y-60595000D01*
G75*
G02*
X135230000Y-60820000I-225000J0D01*
G01*
X134730000Y-60820000D01*
G75*
G02*
X134505000Y-60595000I0J225000D01*
G01*
X134505000Y-60145000D01*
G75*
G02*
X134730000Y-59920000I225000J0D01*
G01*
G37*
%TD*%
D14*
%TO.C,D1*%
X422815000Y-93090000D03*
D13*
X420275000Y-93090000D03*
%TD*%
%TO.C,R1*%
G36*
G01*
X422342500Y-87447500D02*
X422342500Y-86972500D01*
G75*
G02*
X422580000Y-86735000I237500J0D01*
G01*
X423080000Y-86735000D01*
G75*
G02*
X423317500Y-86972500I0J-237500D01*
G01*
X423317500Y-87447500D01*
G75*
G02*
X423080000Y-87685000I-237500J0D01*
G01*
X422580000Y-87685000D01*
G75*
G02*
X422342500Y-87447500I0J237500D01*
G01*
G37*
G36*
G01*
X420517500Y-87447500D02*
X420517500Y-86972500D01*
G75*
G02*
X420755000Y-86735000I237500J0D01*
G01*
X421255000Y-86735000D01*
G75*
G02*
X421492500Y-86972500I0J-237500D01*
G01*
X421492500Y-87447500D01*
G75*
G02*
X421255000Y-87685000I-237500J0D01*
G01*
X420755000Y-87685000D01*
G75*
G02*
X420517500Y-87447500I0J237500D01*
G01*
G37*
%TD*%
%TO.C,4067_1*%
G36*
G01*
X139175000Y-61805000D02*
X139175000Y-62105000D01*
G75*
G02*
X139025000Y-62255000I-150000J0D01*
G01*
X137275000Y-62255000D01*
G75*
G02*
X137125000Y-62105000I0J150000D01*
G01*
X137125000Y-61805000D01*
G75*
G02*
X137275000Y-61655000I150000J0D01*
G01*
X139025000Y-61655000D01*
G75*
G02*
X139175000Y-61805000I0J-150000D01*
G01*
G37*
G36*
G01*
X139175000Y-63075000D02*
X139175000Y-63375000D01*
G75*
G02*
X139025000Y-63525000I-150000J0D01*
G01*
X137275000Y-63525000D01*
G75*
G02*
X137125000Y-63375000I0J150000D01*
G01*
X137125000Y-63075000D01*
G75*
G02*
X137275000Y-62925000I150000J0D01*
G01*
X139025000Y-62925000D01*
G75*
G02*
X139175000Y-63075000I0J-150000D01*
G01*
G37*
G36*
G01*
X139175000Y-64345000D02*
X139175000Y-64645000D01*
G75*
G02*
X139025000Y-64795000I-150000J0D01*
G01*
X137275000Y-64795000D01*
G75*
G02*
X137125000Y-64645000I0J150000D01*
G01*
X137125000Y-64345000D01*
G75*
G02*
X137275000Y-64195000I150000J0D01*
G01*
X139025000Y-64195000D01*
G75*
G02*
X139175000Y-64345000I0J-150000D01*
G01*
G37*
G36*
G01*
X139175000Y-65615000D02*
X139175000Y-65915000D01*
G75*
G02*
X139025000Y-66065000I-150000J0D01*
G01*
X137275000Y-66065000D01*
G75*
G02*
X137125000Y-65915000I0J150000D01*
G01*
X137125000Y-65615000D01*
G75*
G02*
X137275000Y-65465000I150000J0D01*
G01*
X139025000Y-65465000D01*
G75*
G02*
X139175000Y-65615000I0J-150000D01*
G01*
G37*
G36*
G01*
X139175000Y-66885000D02*
X139175000Y-67185000D01*
G75*
G02*
X139025000Y-67335000I-150000J0D01*
G01*
X137275000Y-67335000D01*
G75*
G02*
X137125000Y-67185000I0J150000D01*
G01*
X137125000Y-66885000D01*
G75*
G02*
X137275000Y-66735000I150000J0D01*
G01*
X139025000Y-66735000D01*
G75*
G02*
X139175000Y-66885000I0J-150000D01*
G01*
G37*
G36*
G01*
X139175000Y-68155000D02*
X139175000Y-68455000D01*
G75*
G02*
X139025000Y-68605000I-150000J0D01*
G01*
X137275000Y-68605000D01*
G75*
G02*
X137125000Y-68455000I0J150000D01*
G01*
X137125000Y-68155000D01*
G75*
G02*
X137275000Y-68005000I150000J0D01*
G01*
X139025000Y-68005000D01*
G75*
G02*
X139175000Y-68155000I0J-150000D01*
G01*
G37*
G36*
G01*
X139175000Y-69425000D02*
X139175000Y-69725000D01*
G75*
G02*
X139025000Y-69875000I-150000J0D01*
G01*
X137275000Y-69875000D01*
G75*
G02*
X137125000Y-69725000I0J150000D01*
G01*
X137125000Y-69425000D01*
G75*
G02*
X137275000Y-69275000I150000J0D01*
G01*
X139025000Y-69275000D01*
G75*
G02*
X139175000Y-69425000I0J-150000D01*
G01*
G37*
G36*
G01*
X139175000Y-70695000D02*
X139175000Y-70995000D01*
G75*
G02*
X139025000Y-71145000I-150000J0D01*
G01*
X137275000Y-71145000D01*
G75*
G02*
X137125000Y-70995000I0J150000D01*
G01*
X137125000Y-70695000D01*
G75*
G02*
X137275000Y-70545000I150000J0D01*
G01*
X139025000Y-70545000D01*
G75*
G02*
X139175000Y-70695000I0J-150000D01*
G01*
G37*
G36*
G01*
X139175000Y-71965000D02*
X139175000Y-72265000D01*
G75*
G02*
X139025000Y-72415000I-150000J0D01*
G01*
X137275000Y-72415000D01*
G75*
G02*
X137125000Y-72265000I0J150000D01*
G01*
X137125000Y-71965000D01*
G75*
G02*
X137275000Y-71815000I150000J0D01*
G01*
X139025000Y-71815000D01*
G75*
G02*
X139175000Y-71965000I0J-150000D01*
G01*
G37*
G36*
G01*
X139175000Y-73235000D02*
X139175000Y-73535000D01*
G75*
G02*
X139025000Y-73685000I-150000J0D01*
G01*
X137275000Y-73685000D01*
G75*
G02*
X137125000Y-73535000I0J150000D01*
G01*
X137125000Y-73235000D01*
G75*
G02*
X137275000Y-73085000I150000J0D01*
G01*
X139025000Y-73085000D01*
G75*
G02*
X139175000Y-73235000I0J-150000D01*
G01*
G37*
G36*
G01*
X139175000Y-74505000D02*
X139175000Y-74805000D01*
G75*
G02*
X139025000Y-74955000I-150000J0D01*
G01*
X137275000Y-74955000D01*
G75*
G02*
X137125000Y-74805000I0J150000D01*
G01*
X137125000Y-74505000D01*
G75*
G02*
X137275000Y-74355000I150000J0D01*
G01*
X139025000Y-74355000D01*
G75*
G02*
X139175000Y-74505000I0J-150000D01*
G01*
G37*
G36*
G01*
X139175000Y-75775000D02*
X139175000Y-76075000D01*
G75*
G02*
X139025000Y-76225000I-150000J0D01*
G01*
X137275000Y-76225000D01*
G75*
G02*
X137125000Y-76075000I0J150000D01*
G01*
X137125000Y-75775000D01*
G75*
G02*
X137275000Y-75625000I150000J0D01*
G01*
X139025000Y-75625000D01*
G75*
G02*
X139175000Y-75775000I0J-150000D01*
G01*
G37*
G36*
G01*
X148475000Y-75775000D02*
X148475000Y-76075000D01*
G75*
G02*
X148325000Y-76225000I-150000J0D01*
G01*
X146575000Y-76225000D01*
G75*
G02*
X146425000Y-76075000I0J150000D01*
G01*
X146425000Y-75775000D01*
G75*
G02*
X146575000Y-75625000I150000J0D01*
G01*
X148325000Y-75625000D01*
G75*
G02*
X148475000Y-75775000I0J-150000D01*
G01*
G37*
G36*
G01*
X148475000Y-74505000D02*
X148475000Y-74805000D01*
G75*
G02*
X148325000Y-74955000I-150000J0D01*
G01*
X146575000Y-74955000D01*
G75*
G02*
X146425000Y-74805000I0J150000D01*
G01*
X146425000Y-74505000D01*
G75*
G02*
X146575000Y-74355000I150000J0D01*
G01*
X148325000Y-74355000D01*
G75*
G02*
X148475000Y-74505000I0J-150000D01*
G01*
G37*
G36*
G01*
X148475000Y-73235000D02*
X148475000Y-73535000D01*
G75*
G02*
X148325000Y-73685000I-150000J0D01*
G01*
X146575000Y-73685000D01*
G75*
G02*
X146425000Y-73535000I0J150000D01*
G01*
X146425000Y-73235000D01*
G75*
G02*
X146575000Y-73085000I150000J0D01*
G01*
X148325000Y-73085000D01*
G75*
G02*
X148475000Y-73235000I0J-150000D01*
G01*
G37*
G36*
G01*
X148475000Y-71965000D02*
X148475000Y-72265000D01*
G75*
G02*
X148325000Y-72415000I-150000J0D01*
G01*
X146575000Y-72415000D01*
G75*
G02*
X146425000Y-72265000I0J150000D01*
G01*
X146425000Y-71965000D01*
G75*
G02*
X146575000Y-71815000I150000J0D01*
G01*
X148325000Y-71815000D01*
G75*
G02*
X148475000Y-71965000I0J-150000D01*
G01*
G37*
G36*
G01*
X148475000Y-70695000D02*
X148475000Y-70995000D01*
G75*
G02*
X148325000Y-71145000I-150000J0D01*
G01*
X146575000Y-71145000D01*
G75*
G02*
X146425000Y-70995000I0J150000D01*
G01*
X146425000Y-70695000D01*
G75*
G02*
X146575000Y-70545000I150000J0D01*
G01*
X148325000Y-70545000D01*
G75*
G02*
X148475000Y-70695000I0J-150000D01*
G01*
G37*
G36*
G01*
X148475000Y-69425000D02*
X148475000Y-69725000D01*
G75*
G02*
X148325000Y-69875000I-150000J0D01*
G01*
X146575000Y-69875000D01*
G75*
G02*
X146425000Y-69725000I0J150000D01*
G01*
X146425000Y-69425000D01*
G75*
G02*
X146575000Y-69275000I150000J0D01*
G01*
X148325000Y-69275000D01*
G75*
G02*
X148475000Y-69425000I0J-150000D01*
G01*
G37*
G36*
G01*
X148475000Y-68155000D02*
X148475000Y-68455000D01*
G75*
G02*
X148325000Y-68605000I-150000J0D01*
G01*
X146575000Y-68605000D01*
G75*
G02*
X146425000Y-68455000I0J150000D01*
G01*
X146425000Y-68155000D01*
G75*
G02*
X146575000Y-68005000I150000J0D01*
G01*
X148325000Y-68005000D01*
G75*
G02*
X148475000Y-68155000I0J-150000D01*
G01*
G37*
G36*
G01*
X148475000Y-66885000D02*
X148475000Y-67185000D01*
G75*
G02*
X148325000Y-67335000I-150000J0D01*
G01*
X146575000Y-67335000D01*
G75*
G02*
X146425000Y-67185000I0J150000D01*
G01*
X146425000Y-66885000D01*
G75*
G02*
X146575000Y-66735000I150000J0D01*
G01*
X148325000Y-66735000D01*
G75*
G02*
X148475000Y-66885000I0J-150000D01*
G01*
G37*
G36*
G01*
X148475000Y-65615000D02*
X148475000Y-65915000D01*
G75*
G02*
X148325000Y-66065000I-150000J0D01*
G01*
X146575000Y-66065000D01*
G75*
G02*
X146425000Y-65915000I0J150000D01*
G01*
X146425000Y-65615000D01*
G75*
G02*
X146575000Y-65465000I150000J0D01*
G01*
X148325000Y-65465000D01*
G75*
G02*
X148475000Y-65615000I0J-150000D01*
G01*
G37*
G36*
G01*
X148475000Y-64345000D02*
X148475000Y-64645000D01*
G75*
G02*
X148325000Y-64795000I-150000J0D01*
G01*
X146575000Y-64795000D01*
G75*
G02*
X146425000Y-64645000I0J150000D01*
G01*
X146425000Y-64345000D01*
G75*
G02*
X146575000Y-64195000I150000J0D01*
G01*
X148325000Y-64195000D01*
G75*
G02*
X148475000Y-64345000I0J-150000D01*
G01*
G37*
G36*
G01*
X148475000Y-63075000D02*
X148475000Y-63375000D01*
G75*
G02*
X148325000Y-63525000I-150000J0D01*
G01*
X146575000Y-63525000D01*
G75*
G02*
X146425000Y-63375000I0J150000D01*
G01*
X146425000Y-63075000D01*
G75*
G02*
X146575000Y-62925000I150000J0D01*
G01*
X148325000Y-62925000D01*
G75*
G02*
X148475000Y-63075000I0J-150000D01*
G01*
G37*
G36*
G01*
X148475000Y-61805000D02*
X148475000Y-62105000D01*
G75*
G02*
X148325000Y-62255000I-150000J0D01*
G01*
X146575000Y-62255000D01*
G75*
G02*
X146425000Y-62105000I0J150000D01*
G01*
X146425000Y-61805000D01*
G75*
G02*
X146575000Y-61655000I150000J0D01*
G01*
X148325000Y-61655000D01*
G75*
G02*
X148475000Y-61805000I0J-150000D01*
G01*
G37*
%TD*%
%TO.C,4067_2*%
G36*
G01*
X266425000Y-66305000D02*
X266425000Y-66605000D01*
G75*
G02*
X266275000Y-66755000I-150000J0D01*
G01*
X264525000Y-66755000D01*
G75*
G02*
X264375000Y-66605000I0J150000D01*
G01*
X264375000Y-66305000D01*
G75*
G02*
X264525000Y-66155000I150000J0D01*
G01*
X266275000Y-66155000D01*
G75*
G02*
X266425000Y-66305000I0J-150000D01*
G01*
G37*
G36*
G01*
X266425000Y-67575000D02*
X266425000Y-67875000D01*
G75*
G02*
X266275000Y-68025000I-150000J0D01*
G01*
X264525000Y-68025000D01*
G75*
G02*
X264375000Y-67875000I0J150000D01*
G01*
X264375000Y-67575000D01*
G75*
G02*
X264525000Y-67425000I150000J0D01*
G01*
X266275000Y-67425000D01*
G75*
G02*
X266425000Y-67575000I0J-150000D01*
G01*
G37*
G36*
G01*
X266425000Y-68845000D02*
X266425000Y-69145000D01*
G75*
G02*
X266275000Y-69295000I-150000J0D01*
G01*
X264525000Y-69295000D01*
G75*
G02*
X264375000Y-69145000I0J150000D01*
G01*
X264375000Y-68845000D01*
G75*
G02*
X264525000Y-68695000I150000J0D01*
G01*
X266275000Y-68695000D01*
G75*
G02*
X266425000Y-68845000I0J-150000D01*
G01*
G37*
G36*
G01*
X266425000Y-70115000D02*
X266425000Y-70415000D01*
G75*
G02*
X266275000Y-70565000I-150000J0D01*
G01*
X264525000Y-70565000D01*
G75*
G02*
X264375000Y-70415000I0J150000D01*
G01*
X264375000Y-70115000D01*
G75*
G02*
X264525000Y-69965000I150000J0D01*
G01*
X266275000Y-69965000D01*
G75*
G02*
X266425000Y-70115000I0J-150000D01*
G01*
G37*
G36*
G01*
X266425000Y-71385000D02*
X266425000Y-71685000D01*
G75*
G02*
X266275000Y-71835000I-150000J0D01*
G01*
X264525000Y-71835000D01*
G75*
G02*
X264375000Y-71685000I0J150000D01*
G01*
X264375000Y-71385000D01*
G75*
G02*
X264525000Y-71235000I150000J0D01*
G01*
X266275000Y-71235000D01*
G75*
G02*
X266425000Y-71385000I0J-150000D01*
G01*
G37*
G36*
G01*
X266425000Y-72655000D02*
X266425000Y-72955000D01*
G75*
G02*
X266275000Y-73105000I-150000J0D01*
G01*
X264525000Y-73105000D01*
G75*
G02*
X264375000Y-72955000I0J150000D01*
G01*
X264375000Y-72655000D01*
G75*
G02*
X264525000Y-72505000I150000J0D01*
G01*
X266275000Y-72505000D01*
G75*
G02*
X266425000Y-72655000I0J-150000D01*
G01*
G37*
G36*
G01*
X266425000Y-73925000D02*
X266425000Y-74225000D01*
G75*
G02*
X266275000Y-74375000I-150000J0D01*
G01*
X264525000Y-74375000D01*
G75*
G02*
X264375000Y-74225000I0J150000D01*
G01*
X264375000Y-73925000D01*
G75*
G02*
X264525000Y-73775000I150000J0D01*
G01*
X266275000Y-73775000D01*
G75*
G02*
X266425000Y-73925000I0J-150000D01*
G01*
G37*
G36*
G01*
X266425000Y-75195000D02*
X266425000Y-75495000D01*
G75*
G02*
X266275000Y-75645000I-150000J0D01*
G01*
X264525000Y-75645000D01*
G75*
G02*
X264375000Y-75495000I0J150000D01*
G01*
X264375000Y-75195000D01*
G75*
G02*
X264525000Y-75045000I150000J0D01*
G01*
X266275000Y-75045000D01*
G75*
G02*
X266425000Y-75195000I0J-150000D01*
G01*
G37*
G36*
G01*
X266425000Y-76465000D02*
X266425000Y-76765000D01*
G75*
G02*
X266275000Y-76915000I-150000J0D01*
G01*
X264525000Y-76915000D01*
G75*
G02*
X264375000Y-76765000I0J150000D01*
G01*
X264375000Y-76465000D01*
G75*
G02*
X264525000Y-76315000I150000J0D01*
G01*
X266275000Y-76315000D01*
G75*
G02*
X266425000Y-76465000I0J-150000D01*
G01*
G37*
G36*
G01*
X266425000Y-77735000D02*
X266425000Y-78035000D01*
G75*
G02*
X266275000Y-78185000I-150000J0D01*
G01*
X264525000Y-78185000D01*
G75*
G02*
X264375000Y-78035000I0J150000D01*
G01*
X264375000Y-77735000D01*
G75*
G02*
X264525000Y-77585000I150000J0D01*
G01*
X266275000Y-77585000D01*
G75*
G02*
X266425000Y-77735000I0J-150000D01*
G01*
G37*
G36*
G01*
X266425000Y-79005000D02*
X266425000Y-79305000D01*
G75*
G02*
X266275000Y-79455000I-150000J0D01*
G01*
X264525000Y-79455000D01*
G75*
G02*
X264375000Y-79305000I0J150000D01*
G01*
X264375000Y-79005000D01*
G75*
G02*
X264525000Y-78855000I150000J0D01*
G01*
X266275000Y-78855000D01*
G75*
G02*
X266425000Y-79005000I0J-150000D01*
G01*
G37*
G36*
G01*
X266425000Y-80275000D02*
X266425000Y-80575000D01*
G75*
G02*
X266275000Y-80725000I-150000J0D01*
G01*
X264525000Y-80725000D01*
G75*
G02*
X264375000Y-80575000I0J150000D01*
G01*
X264375000Y-80275000D01*
G75*
G02*
X264525000Y-80125000I150000J0D01*
G01*
X266275000Y-80125000D01*
G75*
G02*
X266425000Y-80275000I0J-150000D01*
G01*
G37*
G36*
G01*
X275725000Y-80275000D02*
X275725000Y-80575000D01*
G75*
G02*
X275575000Y-80725000I-150000J0D01*
G01*
X273825000Y-80725000D01*
G75*
G02*
X273675000Y-80575000I0J150000D01*
G01*
X273675000Y-80275000D01*
G75*
G02*
X273825000Y-80125000I150000J0D01*
G01*
X275575000Y-80125000D01*
G75*
G02*
X275725000Y-80275000I0J-150000D01*
G01*
G37*
G36*
G01*
X275725000Y-79005000D02*
X275725000Y-79305000D01*
G75*
G02*
X275575000Y-79455000I-150000J0D01*
G01*
X273825000Y-79455000D01*
G75*
G02*
X273675000Y-79305000I0J150000D01*
G01*
X273675000Y-79005000D01*
G75*
G02*
X273825000Y-78855000I150000J0D01*
G01*
X275575000Y-78855000D01*
G75*
G02*
X275725000Y-79005000I0J-150000D01*
G01*
G37*
G36*
G01*
X275725000Y-77735000D02*
X275725000Y-78035000D01*
G75*
G02*
X275575000Y-78185000I-150000J0D01*
G01*
X273825000Y-78185000D01*
G75*
G02*
X273675000Y-78035000I0J150000D01*
G01*
X273675000Y-77735000D01*
G75*
G02*
X273825000Y-77585000I150000J0D01*
G01*
X275575000Y-77585000D01*
G75*
G02*
X275725000Y-77735000I0J-150000D01*
G01*
G37*
G36*
G01*
X275725000Y-76465000D02*
X275725000Y-76765000D01*
G75*
G02*
X275575000Y-76915000I-150000J0D01*
G01*
X273825000Y-76915000D01*
G75*
G02*
X273675000Y-76765000I0J150000D01*
G01*
X273675000Y-76465000D01*
G75*
G02*
X273825000Y-76315000I150000J0D01*
G01*
X275575000Y-76315000D01*
G75*
G02*
X275725000Y-76465000I0J-150000D01*
G01*
G37*
G36*
G01*
X275725000Y-75195000D02*
X275725000Y-75495000D01*
G75*
G02*
X275575000Y-75645000I-150000J0D01*
G01*
X273825000Y-75645000D01*
G75*
G02*
X273675000Y-75495000I0J150000D01*
G01*
X273675000Y-75195000D01*
G75*
G02*
X273825000Y-75045000I150000J0D01*
G01*
X275575000Y-75045000D01*
G75*
G02*
X275725000Y-75195000I0J-150000D01*
G01*
G37*
G36*
G01*
X275725000Y-73925000D02*
X275725000Y-74225000D01*
G75*
G02*
X275575000Y-74375000I-150000J0D01*
G01*
X273825000Y-74375000D01*
G75*
G02*
X273675000Y-74225000I0J150000D01*
G01*
X273675000Y-73925000D01*
G75*
G02*
X273825000Y-73775000I150000J0D01*
G01*
X275575000Y-73775000D01*
G75*
G02*
X275725000Y-73925000I0J-150000D01*
G01*
G37*
G36*
G01*
X275725000Y-72655000D02*
X275725000Y-72955000D01*
G75*
G02*
X275575000Y-73105000I-150000J0D01*
G01*
X273825000Y-73105000D01*
G75*
G02*
X273675000Y-72955000I0J150000D01*
G01*
X273675000Y-72655000D01*
G75*
G02*
X273825000Y-72505000I150000J0D01*
G01*
X275575000Y-72505000D01*
G75*
G02*
X275725000Y-72655000I0J-150000D01*
G01*
G37*
G36*
G01*
X275725000Y-71385000D02*
X275725000Y-71685000D01*
G75*
G02*
X275575000Y-71835000I-150000J0D01*
G01*
X273825000Y-71835000D01*
G75*
G02*
X273675000Y-71685000I0J150000D01*
G01*
X273675000Y-71385000D01*
G75*
G02*
X273825000Y-71235000I150000J0D01*
G01*
X275575000Y-71235000D01*
G75*
G02*
X275725000Y-71385000I0J-150000D01*
G01*
G37*
G36*
G01*
X275725000Y-70115000D02*
X275725000Y-70415000D01*
G75*
G02*
X275575000Y-70565000I-150000J0D01*
G01*
X273825000Y-70565000D01*
G75*
G02*
X273675000Y-70415000I0J150000D01*
G01*
X273675000Y-70115000D01*
G75*
G02*
X273825000Y-69965000I150000J0D01*
G01*
X275575000Y-69965000D01*
G75*
G02*
X275725000Y-70115000I0J-150000D01*
G01*
G37*
G36*
G01*
X275725000Y-68845000D02*
X275725000Y-69145000D01*
G75*
G02*
X275575000Y-69295000I-150000J0D01*
G01*
X273825000Y-69295000D01*
G75*
G02*
X273675000Y-69145000I0J150000D01*
G01*
X273675000Y-68845000D01*
G75*
G02*
X273825000Y-68695000I150000J0D01*
G01*
X275575000Y-68695000D01*
G75*
G02*
X275725000Y-68845000I0J-150000D01*
G01*
G37*
G36*
G01*
X275725000Y-67575000D02*
X275725000Y-67875000D01*
G75*
G02*
X275575000Y-68025000I-150000J0D01*
G01*
X273825000Y-68025000D01*
G75*
G02*
X273675000Y-67875000I0J150000D01*
G01*
X273675000Y-67575000D01*
G75*
G02*
X273825000Y-67425000I150000J0D01*
G01*
X275575000Y-67425000D01*
G75*
G02*
X275725000Y-67575000I0J-150000D01*
G01*
G37*
G36*
G01*
X275725000Y-66305000D02*
X275725000Y-66605000D01*
G75*
G02*
X275575000Y-66755000I-150000J0D01*
G01*
X273825000Y-66755000D01*
G75*
G02*
X273675000Y-66605000I0J150000D01*
G01*
X273675000Y-66305000D01*
G75*
G02*
X273825000Y-66155000I150000J0D01*
G01*
X275575000Y-66155000D01*
G75*
G02*
X275725000Y-66305000I0J-150000D01*
G01*
G37*
%TD*%
D18*
%TO.C,J1*%
X265890000Y-52750000D03*
X263350000Y-52750000D03*
X265890000Y-50210000D03*
X263350000Y-50210000D03*
X265890000Y-47670000D03*
X263350000Y-47670000D03*
X265890000Y-45130000D03*
X263350000Y-45130000D03*
X265890000Y-42590000D03*
D19*
X263350000Y-42590000D03*
%TD*%
D11*
%TO.C,C3*%
X131080000Y-61720000D03*
X128580000Y-61720000D03*
%TD*%
%TO.C,C4*%
X265220000Y-62640000D03*
X262720000Y-62640000D03*
%TD*%
D20*
%TO.C,R2*%
X416080000Y-88170000D03*
D21*
X416080000Y-93250000D03*
%TD*%
M02*
